<?xml version="1.0" encoding="UTF-8"?><svg id="Layer_2" xmlns="http://www.w3.org/2000/svg" viewBox="0 0 461.65 285.4"><defs><style>.cls-1{fill:#fff;}.cls-2{fill:#ffb830;}.cls-3{fill:#7b4e2a;}.cls-4{fill:#402712;}.cls-5{fill:#e1be98;}.cls-6{fill:#56361d;}.cls-7{fill:#2d1b0d;}.cls-8{fill:#fbfbfb;}.cls-9{fill:#090806;}.cls-10{stroke:#fff;stroke-width:15px;}.cls-10,.cls-11{fill:#241509;stroke-linecap:round;stroke-linejoin:round;}.cls-12{fill:#0b0b0b;}.cls-11{stroke:#000;stroke-width:5px;}.cls-13{fill:#f8b32f;}.cls-14{fill:#060606;}</style></defs><g id="Option_1"><g id="Box-Back"><polygon class="cls-10" points="219.8 171.28 7.5 199.32 7.5 215.71 19.9 214.69 19.9 248.04 219.9 220.28 220 171.28 219.8 171.28"/><polygon class="cls-10" points="220.2 171.33 432.5 199.37 432.5 215.76 420.1 214.74 420.1 248.09 220.1 220.33 220 171.33 220.2 171.33"/><polygon class="cls-11" points="219.9 171.28 7.6 199.32 7.6 215.71 20 214.69 20 248.04 220 220.28 220.1 171.28 219.9 171.28"/><polygon class="cls-11" points="220.3 171.33 432.6 199.37 432.6 215.76 420.2 214.74 420.2 248.09 220.2 220.33 220.1 171.33 220.3 171.33"/></g><g id="Sand"><path class="cls-5" d="M52.11,207.93c16.66-3.76,33.32-7.52,49.98-11.29,13.08-2.95,26.28-5.92,39.69-6.04,26.54-.23,52.07,10.7,78.58,11.93,22.56,1.05,44.8-4.95,67.3-6.91,21.34-1.85,43-.03,63.74,5.37,12.05,3.14,24.19,7.52,36.59,6.36l-176.08,21.79-159.79-21.22Z"/><path d="M52.78,210.34c11.25-2.54,22.5-5.08,33.75-7.62,11-2.48,21.98-5.18,33.07-7.24s21.86-2.92,32.93-1.9,20.9,3.32,31.22,5.59,20.99,4.58,31.69,5.53,22.16,.18,33.16-1.25c11.01-1.43,21.93-3.43,32.96-4.71s22.25-1.65,33.39-1c11.12,.65,22.16,2.31,32.98,4.95,10.59,2.58,20.96,6.34,31.9,7.19,2.72,.21,5.44,.2,8.16-.03v-5c-5.37,.66-10.74,1.33-16.11,1.99-13.01,1.61-26.01,3.22-39.02,4.83-16.11,1.99-32.22,3.99-48.33,5.98-14.72,1.82-29.45,3.64-44.17,5.47-8.71,1.08-17.41,2.15-26.12,3.23-.89,.11-1.79,.3-2.68,.24-2.32-.16-4.66-.62-6.96-.92l-34.41-4.57-47.81-6.35c-14.81-1.97-29.61-3.93-44.42-5.9-8.23-1.09-16.46-2.19-24.69-3.28l-1.16-.15c-1.35-.18-2.49,1.28-2.5,2.5-.02,1.5,1.17,2.32,2.5,2.5,5.83,.77,11.65,1.55,17.48,2.32,13.72,1.82,27.45,3.65,41.17,5.47,16.13,2.14,32.26,4.28,48.38,6.43,13.07,1.74,26.14,3.47,39.2,5.21l10.9,1.45c.97,.13,1.98,.36,2.95,.32,2.1-.11,4.24-.52,6.33-.78l13.29-1.64,41.04-5.08c16.23-2.01,32.47-4.02,48.7-6.03l42.5-5.26,22.87-2.83,1.06-.13c1.35-.17,2.48-1.03,2.5-2.5,.01-1.26-1.16-2.61-2.5-2.5-11.07,.95-21.71-2.39-32.25-5.29-10.75-2.96-21.69-5.06-32.78-6.19s-22.27-1.27-33.38-.42-22.25,2.75-33.33,4.4-22.14,3.01-33.31,2.75-21.33-2.21-31.81-4.46-20.9-4.78-31.53-6.26-21.74-1.63-32.69-.14-22.25,4.23-33.28,6.72c-11.25,2.54-22.5,5.08-33.75,7.62l-8.44,1.91c-3.14,.71-1.81,5.53,1.33,4.82Z"/></g><g><g id="White_Outline"><g><path class="cls-9" d="M137.99,229.42c-2.08,0-4.06-1.14-5.58-3.21-2.29-3.13-4.57-6.34-6.77-9.45l-2.57-3.62c-1.29-1.81-2.59-3.62-3.88-5.43-3.57-4.99-7.27-10.15-10.81-15.3-.12-.17-.21-.29-.28-.37-.12,.04-.32,.12-.6,.26-9.5,4.67-19.2,9.33-28.58,13.83l-3.76,1.8c-1.1,.53-2.28,1.06-3.62,1.26-.38,.06-.76,.09-1.12,.09-1.64,0-3.05-.58-4.08-1.68-1.3-1.38-1.87-3.44-1.7-6.12v-.12s4.45-27.49,4.45-27.49c.15-.94,.3-1.89,.44-2.83,.35-2.29,.72-4.66,1.19-7-13.66-3.15-27.53-6.41-40.94-9.56l-10-2.35c-.74-.17-1.58-.36-2.42-.69-2.91-1.14-4.45-3.02-4.57-5.58-.08-1.73,.53-4.15,3.94-5.8,4.17-2.02,8.34-4.02,12.52-6.02l7.3-3.49c8.72-4.17,17.74-8.48,26.66-12.65,.1-.05,.19-.09,.26-.13-.03-.09-.06-.19-.11-.31-3.57-9.16-7.12-18.49-10.56-27.52-1.3-3.42-3.97-10.42-3.97-10.42-.73-1.91-1.95-5.1,.84-7.86,1.25-1.23,2.77-1.85,4.52-1.85,1.32,0,2.55,.35,3.6,.68,3.59,1.12,7.18,2.24,10.77,3.35,9.43,2.93,19.18,5.96,28.75,9.03,.08,.02,.14,.04,.21,.06,.04-.08,.08-.18,.12-.3,5.71-14.92,11.42-29.64,16.97-43.74,.12-.31,.23-.65,.33-.99,.57-1.8,1.63-5.16,5.53-5.39,.13,0,.25-.01,.37-.01,3.63,0,5.12,2.96,6.01,4.72,.16,.31,.31,.62,.48,.91,7.18,12.52,14.4,25.28,21.38,37.63l2.44,4.31c.2,.35,.41,.72,.58,1.01,.34-.14,.79-.33,1.19-.49,9.85-4.15,19.7-8.29,29.55-12.45,1.05-.45,2.37-1,3.85-1,1.35,0,2.58,.45,3.66,1.34,2.76,2.28,2.26,5.47,1.99,7.18-.51,3.2-1.01,6.41-1.51,9.62-1.27,8.09-2.58,16.45-3.95,24.67-.02,.12-.03,.23-.04,.31,.09,.04,.22,.09,.38,.15,9.07,3.28,18.27,6.68,27.16,9.97l8.35,3.09,.41,.15c.5,.18,1.06,.38,1.62,.66,2.08,1.04,3.37,2.86,3.46,4.87,.09,2.02-1,3.89-2.99,5.11-1.28,.79-2.6,1.42-3.88,2.03-.41,.19-.82,.39-1.22,.59l-6.92,3.4c-8.13,4-16.53,8.14-24.85,12.14,0,.02,.01,.04,.02,.07,2.58,7.49,5.13,15.12,7.61,22.5l1.81,5.41c.43,1.27,.88,2.63,1.25,4.04,.82,3.09,.04,4.98-.75,6.02-.71,.93-2.09,2.03-4.58,2.03-.69,0-1.43-.09-2.21-.26l-3.48-.77c-8.6-1.9-17.49-3.87-26.21-5.96-.18-.04-.32-.07-.42-.08-.05,.1-.12,.24-.2,.45-4.73,11.46-9.58,22.97-14.15,33.78-.84,2-1.79,4.12-2.98,6.11-1.42,2.37-3.44,3.68-5.71,3.68Zm-11.4-31.45c3.58,5.1,7.16,10.2,10.73,15.31,.77-1.84,1.54-3.68,2.31-5.52l7.88-18.77c-6.74,2.19-13.49,3.27-20.48,3.27-1.5,0-3.03-.05-4.56-.15l4.12,5.87Zm-48.3-4.07c1.68-.79,3.35-1.59,5.03-2.39l13.89-6.64c-5.83-3.12-10.95-6.96-15.49-11.62l-3.43,20.65Zm-.6-60.11c.23,10.7,2.49,18.74,7.31,26.07,9.18,13.94,25.16,22.26,42.74,22.26,12.41,0,24.34-4.29,33.61-12.08,10.43-8.77,16.37-21.34,16.31-34.48-.06-12.85-5.93-25.03-16.11-33.42-10.28-8.48-21.39-12.77-33.04-12.77-7.62,0-15.52,1.85-23.48,5.51-16.77,7.69-26.48,21.52-27.35,38.92Zm107.98,46.1c-1.82-5.32-3.66-10.68-5.57-16.27l-.06-.19c-2.8,4.59-6.23,8.75-10.47,12.73,0,0,11.47,2.65,16.11,3.72ZM36.83,143.97c10.65,2.57,21.33,5.13,32.01,7.7-2.24-7.15-2.97-14.55-2.19-22.07-6.85,3.28-13.7,6.58-20.55,9.88-3.05,1.47-6.09,2.95-9.28,4.49Zm149.14-22.1c.55,2.06,.98,4.19,1.3,6.46,.56,3.85,.66,7.82,.3,12.23l21.38-10.37-8.23-2.98c-4.92-1.78-9.84-3.56-14.76-5.35Zm-121.49-36.76c2.65,7.08,5.3,14.16,7.97,21.23,.23,.61,.45,1.23,.67,1.85,.1,.28,.2,.55,.29,.83,3.77-6.51,8.55-12.04,14.5-16.74-7.81-2.39-15.62-4.78-23.43-7.16Zm97.5,4.24c5.6,3.71,10.29,8.03,14.34,13.23,0,0,2.29-14.81,3.21-20.75-2.89,1.23-5.78,2.47-8.67,3.71l-8.88,3.81Zm-39.64-36.39c-3.59,9.28-7.19,18.59-10.79,27.9,5.23-1.22,10.37-1.84,15.33-1.84,2.12,0,4.26,.11,6.35,.34,1.52,.16,3.02,.37,4.55,.61l-15.44-27Z"/><path class="cls-1" d="M120.86,34.99c2.55,0,3.29,2.59,4.32,4.38,7.98,13.91,15.86,27.87,23.75,41.82,1.04,1.83,1.44,2.58,2.31,2.58,.58,0,1.36-.33,2.67-.88,9.85-4.15,19.71-8.3,29.55-12.46,.96-.41,1.92-.8,2.88-.8,.69,0,1.38,.21,2.07,.77,1.59,1.31,1.39,3.08,1.11,4.86-1.81,11.42-3.55,22.86-5.46,34.26-.32,1.93,.22,2.59,1.96,3.22,11.85,4.28,23.67,8.68,35.49,13.05,.6,.22,1.21,.41,1.78,.7,2.64,1.32,2.81,4.06,.28,5.62-1.56,.96-3.25,1.69-4.9,2.5-10.6,5.21-21.17,10.45-31.81,15.57-1.66,.8-1.72,1.55-1.19,3.1,3.2,9.27,6.29,18.58,9.41,27.88,.43,1.28,.85,2.58,1.2,3.88,.83,3.11-.29,4.91-2.92,4.91-.5,0-1.06-.07-1.67-.2-9.89-2.19-19.79-4.35-29.64-6.72-.48-.11-.88-.17-1.23-.17-1.16,0-1.72,.64-2.29,2.01-4.65,11.28-9.39,22.52-14.14,33.76-.84,1.98-1.72,3.96-2.82,5.81-.98,1.64-2.25,2.46-3.56,2.46-1.23,0-2.49-.73-3.56-2.19-3.16-4.31-6.22-8.69-9.32-13.04-4.91-6.89-9.88-13.73-14.67-20.7-.73-1.06-1.38-1.51-2.16-1.51-.54,0-1.14,.21-1.88,.58-10.74,5.28-21.53,10.44-32.32,15.62-.93,.44-1.91,.89-2.91,1.04-.26,.04-.51,.06-.75,.06-2.2,0-3.5-1.64-3.29-5.15,1.34-8.32,2.88-17.84,4.42-27.37,.53-3.31,.98-6.63,1.65-9.91,.35-1.73-.11-2.34-1.83-2.73-16.87-3.89-33.72-7.87-50.58-11.83-.85-.2-1.73-.37-2.54-.68-1.55-.61-2.9-1.52-2.99-3.37-.08-1.76,1.11-2.74,2.54-3.44,4.16-2.02,8.33-4.02,12.51-6.01,11.3-5.39,22.59-10.82,33.93-16.13,1.87-.87,2.17-1.68,1.42-3.61-4.9-12.56-9.65-25.17-14.46-37.76-.69-1.82-1.48-3.69,.2-5.35,.85-.84,1.79-1.13,2.76-1.13s1.9,.26,2.86,.56c13.17,4.11,26.37,8.17,39.51,12.38,.56,.18,1.02,.27,1.4,.27,1.02,0,1.51-.65,2.03-2,5.58-14.6,11.23-29.18,16.96-43.72,.74-1.89,.99-4.64,3.68-4.79,.08,0,.15,0,.23,0m-12.39,49.29c.36,0,.73-.24,1.08-.34,5.71-1.55,11.5-2.43,17.35-2.43,2.02,0,4.05,.1,6.08,.32,3.06,.33,6.1,.88,9.56,1.39-6.87-12.01-13.56-23.71-20.5-35.84-.43,.78-.62,1.04-.73,1.33-4.4,11.36-8.8,22.73-13.18,34.1-.16,.41-.62,.87-.15,1.28,.16,.14,.32,.19,.48,.19m69.39,24.79c1.61-10.37,3.1-20.01,4.59-29.66,.14-.92-.1-1.2-.49-1.2-.3,0-.7,.17-1.07,.33-3.67,1.55-7.33,3.12-11,4.69-4.29,1.84-8.59,3.69-13.32,5.72,8.82,4.99,15.73,11.4,21.29,20.12m-104.64,5.71c4.61-9.76,11.25-17.32,19.82-23.18-.29-.32-.37-.5-.49-.54-10.06-3.09-20.13-6.16-30.2-9.23-.29-.09-.6-.25-.9-.25-.16,0-.31,.04-.45,.17-.58,.5-.04,1.03,.14,1.51,2.99,7.99,5.98,15.98,8.99,23.96,.91,2.4,1.61,4.89,3.09,7.57m54.53,69.83c12.46,0,25.04-4.11,35.22-12.67,22.74-19.12,23.07-52.87,.19-71.74-10.8-8.91-22.47-13.35-34.63-13.35-7.99,0-16.2,1.91-24.52,5.73-18.3,8.4-27.94,23.29-28.81,41.16,.23,11.51,2.73,19.89,7.73,27.48,10.07,15.28,27.33,23.39,44.83,23.39m56.86-39.83c10.35-5.02,20.32-9.86,30.38-14.74-.31-.32-.4-.48-.53-.53-10.18-3.69-20.37-7.37-30.55-11.07-.36-.13-.65-.2-.86-.2-.57,0-.64,.47-.34,1.38,.98,2.95,1.66,5.97,2.11,9.05,.76,5.23,.58,10.45-.21,16.1m-112.87,10.19c.15,0,.3-.05,.43-.19,.47-.5,.03-1.05-.15-1.54-2.97-8.18-3.84-16.58-2.65-25.19,.09-.68,.53-1.54-.16-2.01-.16-.11-.32-.16-.48-.16-.51,0-1.02,.45-1.49,.68-7.41,3.54-14.81,7.11-22.21,10.67-4.86,2.34-9.72,4.7-15.15,7.33,.93,.4,1.27,.61,1.63,.7,13.1,3.16,26.2,6.31,39.31,9.46,.29,.07,.61,.26,.91,.26m116.87,28.11c.85,0,.54-.78,.32-1.44-2.7-7.91-5.41-15.81-8.35-24.38-4,8.28-9.45,14.59-16.3,20.25,8.27,1.91,16.03,3.71,23.79,5.49,.22,.05,.41,.08,.56,.08m-112.81,14.61c.29,0,.67-.16,1.05-.34,2.52-1.19,5.04-2.38,7.55-3.58,6.02-2.87,12.04-5.75,18.57-8.87-9.07-4.01-16.49-9.51-22.86-17.18-1.67,10.08-3.22,19.41-4.78,28.75-.15,.93,.07,1.22,.46,1.22m76.27-13.05c-8.36,3.48-16.61,5.11-25.02,5.11-3.11,0-6.24-.22-9.41-.66,.21,.56,.24,.8,.37,.98,6.27,8.95,12.57,17.89,18.82,26.85,.4,.58,.71,.81,.95,.81,.36,0,.61-.49,.88-1.15,1.43-3.46,2.89-6.92,4.34-10.37,2.93-6.97,5.85-13.93,9.06-21.58M120.86,29.99c-.17,0-.34,0-.52,.02-5.62,.33-7.18,5.27-7.77,7.13-.1,.32-.2,.63-.28,.82-5.33,13.53-10.79,27.61-16.25,41.87-8.93-2.85-17.97-5.66-26.75-8.39-3.59-1.11-7.17-2.23-10.76-3.35-1.32-.41-2.75-.79-4.35-.79-2.4,0-4.57,.89-6.27,2.57-3.96,3.9-2.18,8.55-1.42,10.53l.06,.16c1.3,3.41,2.6,6.82,3.9,10.23,3.21,8.43,6.51,17.12,9.84,25.7-8.29,3.89-16.64,7.88-24.74,11.76-2.46,1.18-4.92,2.35-7.38,3.53-4.91,2.34-8.89,4.26-12.54,6.03-4.88,2.37-5.45,6.14-5.35,8.17,.1,2.05,1.03,5.78,6.16,7.79,1.01,.39,1.99,.62,2.77,.79l.44,.1,9.58,2.25c12.64,2.97,25.69,6.04,38.58,9.02-.28,1.59-.52,3.17-.76,4.72-.14,.94-.29,1.88-.44,2.82l-3.29,20.38-1.13,6.99-.04,.24-.02,.24c-.21,3.4,.59,6.09,2.38,7.99,1.49,1.59,3.59,2.47,5.9,2.47,.48,0,.98-.04,1.49-.11,1.69-.25,3.12-.89,4.34-1.48l3.86-1.85c8.91-4.28,18.12-8.69,27.16-13.13,3.26,4.72,6.63,9.42,9.89,13.98,1.29,1.8,2.58,3.61,3.87,5.41,.85,1.2,1.7,2.4,2.55,3.6,2.21,3.12,4.5,6.35,6.81,9.5,2,2.73,4.7,4.23,7.6,4.23,3.14,0,6-1.79,7.86-4.9,1.26-2.12,2.25-4.34,3.13-6.42,4.38-10.36,9.02-21.36,13.54-32.29,8.22,1.95,16.56,3.8,24.64,5.58l3.44,.76c.96,.21,1.88,.32,2.75,.32,2.74,0,5.07-1.07,6.56-3.01,1.14-1.48,2.27-4.11,1.19-8.19-.39-1.47-.85-2.88-1.29-4.19l-1.81-5.39c-2.25-6.72-4.57-13.65-6.92-20.5,7.65-3.69,15.34-7.48,22.81-11.16,2.32-1.14,4.65-2.29,6.97-3.43,.4-.2,.8-.39,1.2-.58,1.34-.64,2.72-1.3,4.11-2.15,2.74-1.69,4.31-4.43,4.18-7.35-.13-2.93-1.93-5.55-4.83-7-.71-.35-1.38-.59-1.91-.78-.13-.04-.25-.09-.38-.14-2.78-1.02-5.55-2.05-8.32-3.08-8.39-3.1-17.05-6.31-25.63-9.42,1.27-7.68,2.49-15.45,3.67-22.99,.5-3.19,1-6.39,1.51-9.58,.3-1.89,1-6.31-2.87-9.5-1.52-1.25-3.33-1.91-5.25-1.91s-3.63,.69-4.83,1.2c-9.56,4.04-19.12,8.07-28.69,12.09l-1.86-3.29c-7-12.39-14.24-25.19-21.45-37.75-.14-.25-.27-.52-.41-.79-.92-1.82-3.07-6.1-8.24-6.1h0Zm-5.32,47.51c2.41-6.25,4.83-12.5,7.25-18.74l10.33,18.07c-2.05-.21-4.15-.31-6.23-.31-3.7,0-7.5,.33-11.35,.99h0Zm51.5,12.39c1.62-.7,3.22-1.38,4.81-2.07,1.51-.65,3.02-1.29,4.53-1.94-.56,3.61-1.12,7.24-1.69,10.94-2.35-2.51-4.89-4.82-7.65-6.94h0Zm-93.02,13.5c-1.76-4.67-3.52-9.36-5.42-14.42,4.74,1.45,9.48,2.9,14.22,4.35-3.32,3.05-6.25,6.4-8.8,10.08h0Zm6.17,30.43c.86-16.62,9.82-29.31,25.89-36.69,7.63-3.5,15.18-5.28,22.44-5.28,11.05,0,21.63,4.11,31.45,12.2,9.74,8.04,15.14,19.22,15.2,31.5,.06,12.4-5.56,24.26-15.42,32.55-8.82,7.41-20.18,11.5-32,11.5-16.74,0-31.94-7.9-40.65-21.14-4.54-6.89-6.67-14.5-6.9-24.65h0Zm110.09,2.65c.04-2.96-.13-5.75-.53-8.5-.11-.75-.23-1.48-.36-2.21,3.51,1.27,7.02,2.54,10.53,3.81,.87,.32,1.75,.63,2.62,.95l-12.26,5.95h0Zm-146.08,6.7c1-.48,1.99-.96,2.99-1.44,4.68-2.25,10.51-5.06,16.68-8.02-.14,4.92,.34,9.78,1.45,14.54-7.04-1.69-14.08-3.38-21.11-5.08h0Zm130.31,31.58c1.74-1.86,3.33-3.76,4.78-5.74,.86,2.51,1.71,4.98,2.55,7.43-2.42-.56-4.86-1.12-7.33-1.69h0Zm-92.98,14.83l1.87-11.27c2.64,2.34,5.45,4.44,8.45,6.34-3.26,1.56-6.44,3.08-9.63,4.6-.23,.11-.47,.22-.7,.33h0Zm81.72-3.04h0Zm-35.87,8.21c5.38-.03,10.61-.67,15.81-1.94l-4.81,11.47-1.07,2.54c-.18,.43-.36,.87-.55,1.3-2.74-3.92-5.48-7.82-8.23-11.73-.38-.55-.77-1.1-1.15-1.64h0Z"/></g><g><path class="cls-14" d="M194.96,240.62c-.61,0-1.26-.12-1.99-.38-16.45-5.81-30.08-10.56-42.92-14.94-1.15-.39-2.55-1.03-3.18-2.5-.71-1.64,.03-3.24,.42-4.1,1.93-4.2,3.86-8.7,6.06-14.17,.32-.8,1.3-3.22,3.88-3.22,.83,0,1.67,.25,2.71,.82,3.91,2.13,7.92,4.25,11.8,6.3,3.83,2.02,7.79,4.11,11.66,6.22,2.65-7.09,5.83-14.42,12.58-19.46,2.78-2.07,5.32-3.31,7.99-3.89,.69-.15,1.37-.23,2.02-.23,2,0,3.75,.71,5.04,2.04,1.05,1.09,2.28,3.13,2.16,6.64v.13c-.3,3.41-1.52,6.8-2.81,10.39-.47,1.31-.96,2.67-1.38,4-2.21,6.89-5.3,13.44-8.3,19.79-.56,1.2-1.13,2.39-1.69,3.59-.92,1.97-2.29,2.97-4.06,2.97Z"/><path class="cls-1" d="M206.01,193.57c2.91,0,4.83,2.14,4.69,6.09-.37,4.31-2.52,9-4.07,13.84-2.56,8-6.33,15.49-9.87,23.08-.46,1-.95,1.53-1.8,1.53-.32,0-.7-.08-1.15-.24-14.29-5.05-28.6-10.06-42.95-14.95-2.04-.69-2.12-1.41-1.3-3.19,2.16-4.7,4.17-9.48,6.11-14.28,.44-1.1,.86-1.66,1.57-1.66,.39,0,.88,.17,1.51,.52,7.84,4.28,15.81,8.34,23.65,12.62,.73,.4,1.26,.61,1.69,.61,.7,0,1.12-.58,1.61-1.89,2.6-6.97,5.52-13.8,11.79-18.47,2.14-1.59,4.41-2.88,7.03-3.46,.52-.11,1.01-.17,1.48-.17m0-5h0c-.83,0-1.69,.1-2.55,.29-3.03,.67-5.87,2.04-8.95,4.33-6.43,4.79-9.79,11.33-12.4,17.91-3.08-1.66-6.17-3.29-9.19-4.88-3.87-2.04-7.87-4.15-11.76-6.28-.89-.48-2.26-1.13-3.91-1.13-1.95,0-4.61,.83-6.2,4.78-2.19,5.44-4.11,9.91-6.02,14.06-.48,1.04-1.59,3.46-.45,6.13,1.15,2.68,3.8,3.59,4.67,3.88,12.85,4.38,26.48,9.12,42.9,14.93,1,.35,1.92,.52,2.82,.52,1.59,0,4.54-.57,6.33-4.41,.56-1.19,1.12-2.38,1.68-3.58,3.03-6.42,6.16-13.05,8.42-20.1,.41-1.29,.89-2.63,1.36-3.92,1.29-3.58,2.61-7.29,2.94-11.02v-.13s.02-.13,.02-.13c.15-4.39-1.47-7.03-2.86-8.46-1.75-1.81-4.17-2.8-6.83-2.8h0Z"/></g><g><path class="cls-14" d="M237.22,231.85c-.56,0-1.15-.11-1.8-.34-8.61-3.03-15.85-5.52-23.25-7.82-1.32-.41-2.93-1.09-3.7-2.68-.76-1.58-.29-3.22,.2-4.48,1.46-3.73,2.65-7.53,3.72-11.07,.74-2.44,2.34-2.8,3.23-2.8,.84,0,1.52,.32,2.15,.65,1.14,.6,2.29,1.17,3.44,1.75,1.69,.84,3.43,1.71,5.13,2.65,1.96-5.27,4.22-11.17,9.06-15.76,2.01-1.9,5.18-4.55,9.47-5.57,.68-.16,1.35-.24,2-.24,1.89,0,3.6,.7,4.83,1.96,1.37,1.42,2.06,3.41,1.99,5.75,0,1.47-.44,3.06-.88,4.6l-.1,.36c-2.71,9.7-6.53,19.59-11.68,30.24-.37,.76-1.35,2.79-3.81,2.79Z"/><path class="cls-1" d="M246.87,188.64c2.64,0,4.42,1.93,4.32,5.14,0,1.31-.46,2.84-.89,4.37-2.88,10.31-6.87,20.2-11.53,29.83-.41,.84-.78,1.37-1.56,1.37-.27,0-.59-.06-.97-.2-7.74-2.72-15.5-5.41-23.33-7.85-2.4-.75-2.79-1.62-1.91-3.87,1.44-3.68,2.64-7.47,3.78-11.25,.23-.76,.49-1.03,.84-1.03,.26,0,.58,.15,.98,.36,3.03,1.59,6.15,3.03,9.13,4.72,.58,.33,1.02,.49,1.37,.49,.67,0,1.01-.6,1.42-1.72,2.05-5.52,4.17-11.05,8.6-15.25,2.4-2.28,5.04-4.17,8.32-4.95,.5-.12,.98-.17,1.43-.17m0-5h0c-.84,0-1.71,.1-2.58,.31-4.88,1.15-8.4,4.08-10.61,6.18-4.39,4.16-6.84,9.35-8.67,14.03-.9-.46-1.8-.91-2.68-1.35-1.18-.59-2.29-1.14-3.4-1.73-.62-.33-1.78-.93-3.31-.93-.99,0-4.34,.33-5.63,4.58-1.06,3.49-2.23,7.23-3.66,10.88-.4,1.02-1.45,3.71-.12,6.47,1.34,2.78,4.15,3.65,5.2,3.98,7.34,2.29,14.57,4.77,23.16,7.79,.92,.32,1.78,.48,2.63,.48,1.84,0,4.38-.73,6.06-4.2,5.21-10.78,9.09-20.81,11.84-30.66l.1-.35c.45-1.6,.96-3.42,.97-5.29,.07-2.96-.88-5.62-2.7-7.49-1.7-1.75-4.05-2.72-6.62-2.72h0Z"/></g><g><path class="cls-14" d="M181.35,212.44c-.8,0-1.61-.24-2.56-.76-6.73-3.65-13.46-7.15-19.74-10.39-2.98-1.54-2.72-3.8-1.97-5.42,.94-2.04,1.75-4.14,2.67-6.67,.88-2.39,2.52-2.9,3.75-2.9,.39,0,.8,.05,1.25,.15,6.92,1.55,13.77,3.03,21.01,4.59l11.95,2.59-4,3.28c-4.41,3.62-6.74,8.19-8.61,12.6-.82,1.94-2.09,2.93-3.76,2.93Z"/><path class="cls-1" d="M163.5,188.81c.2,0,.44,.03,.7,.09,9.14,2.05,18.3,4,27.93,6.09-4.66,3.82-7.21,8.55-9.32,13.55-.4,.94-.82,1.4-1.46,1.4-.37,0-.81-.15-1.37-.45-6.55-3.55-13.16-7-19.79-10.41-1.06-.55-1.39-.97-.84-2.16,1.03-2.24,1.9-4.55,2.75-6.86,.31-.85,.66-1.25,1.4-1.25m0-5c-1.33,0-4.6,.44-6.1,4.54-.91,2.48-1.69,4.53-2.59,6.49-1.27,2.77-1.13,6.51,3.09,8.69,6.26,3.23,12.97,6.71,19.69,10.36,1.31,.71,2.54,1.06,3.75,1.06,1.56,0,4.43-.58,6.07-4.45,1.74-4.11,3.9-8.37,7.89-11.64l7.99-6.56-10.11-2.19c-2.33-.5-4.63-1-6.91-1.49-7.24-1.56-14.08-3.04-20.99-4.59-.64-.14-1.22-.21-1.8-.21h0Z"/></g><g><path class="cls-12" d="M87.77,203.62l4-2.8c2.97-2.08,5.92-3.4,8.77-4.67,.61-.27,1.21-.54,1.81-.81,.91-.42,1.88-.63,2.87-.63,2.2,0,4.29,1.06,5.58,2.84,1.99,2.74,3.99,5.47,5.98,8.2l7.82,10.7-36.83-12.83Z"/><path class="cls-1" d="M105.22,197.21c1.37,0,2.71,.64,3.56,1.81,3.02,4.15,6.05,8.29,9.08,12.44l-24.66-8.59c3.39-2.38,6.84-3.72,10.18-5.25,.59-.27,1.22-.4,1.83-.4m0-5h0c-1.36,0-2.68,.29-3.92,.86-.59,.27-1.19,.54-1.78,.8-2.82,1.26-6.02,2.68-9.19,4.9l-7.99,5.6,9.22,3.21,24.66,8.59,15.13,5.27-9.45-12.94-3.06-4.18c-2.01-2.75-4.02-5.5-6.02-8.25-1.76-2.42-4.61-3.87-7.6-3.87h0Z"/></g></g><path class="cls-9" d="M67.14,201.63c1.34-8.32,2.88-17.84,4.42-27.37,.53-3.31,.98-6.63,1.65-9.91,.35-1.73-.11-2.34-1.83-2.73-16.87-3.89-33.72-7.87-50.58-11.83-.85-.2-1.73-.37-2.54-.68-1.55-.61-2.9-1.52-2.99-3.37-.08-1.76,1.11-2.74,2.54-3.44,4.16-2.02,8.33-4.02,12.51-6.01,11.3-5.39,22.59-10.82,33.93-16.13,1.87-.87,2.17-1.68,1.42-3.61-4.9-12.56-9.65-25.17-14.46-37.76-.69-1.82-1.48-3.69,.2-5.35,1.67-1.64,3.66-1.18,5.62-.57,13.17,4.11,26.37,8.17,39.51,12.38,2.06,.66,2.72,.12,3.43-1.73,5.58-14.6,11.23-29.18,16.96-43.72,.74-1.89,.99-4.64,3.68-4.79,2.74-.16,3.49,2.53,4.54,4.37,7.98,13.91,15.86,27.87,23.75,41.82,1.72,3.05,1.69,3.08,4.98,1.7,9.85-4.15,19.71-8.3,29.55-12.46,1.66-.7,3.32-1.37,4.95-.03,1.59,1.31,1.39,3.08,1.11,4.86-1.81,11.42-3.55,22.86-5.46,34.26-.32,1.93,.22,2.59,1.96,3.22,11.85,4.28,23.67,8.68,35.49,13.05,.6,.22,1.21,.41,1.78,.7,2.64,1.32,2.81,4.06,.28,5.62-1.56,.96-3.25,1.69-4.9,2.5-10.6,5.21-21.17,10.45-31.81,15.57-1.66,.8-1.72,1.55-1.19,3.1,3.2,9.27,6.29,18.58,9.41,27.88,.43,1.28,.85,2.58,1.2,3.88,.99,3.71-.78,5.55-4.59,4.71-9.89-2.19-19.79-4.35-29.64-6.72-2.05-.49-2.78,.05-3.52,1.84-4.65,11.28-9.39,22.52-14.14,33.76-.84,1.98-1.72,3.96-2.82,5.81-1.9,3.18-4.92,3.29-7.13,.27-3.16-4.31-6.22-8.69-9.32-13.04-4.91-6.89-9.88-13.73-14.67-20.7-1.24-1.8-2.23-1.82-4.04-.93-10.74,5.28-21.53,10.44-32.32,15.62-.93,.44-1.91,.89-2.91,1.04-2.65,.39-4.28-1.2-4.04-5.09Zm8.05-67.87c.23,11.51,2.73,19.89,7.73,27.48,17.24,26.17,55.58,31.29,80.05,10.71,22.74-19.12,23.07-52.87,.19-71.74-17.9-14.76-38.16-17.24-59.15-7.61-18.3,8.4-27.94,23.29-28.81,41.16ZM122.04,47.39c-.43,.78-.62,1.05-.73,1.33-4.4,11.36-8.8,22.73-13.18,34.1-.16,.41-.62,.87-.15,1.28,.51,.44,1.05-.01,1.57-.15,7.69-2.09,15.49-2.95,23.43-2.11,3.06,.33,6.1,.88,9.56,1.39-6.87-12.01-13.56-23.71-20.5-35.84ZM29.87,144.56c.93,.4,1.27,.61,1.63,.7,13.1,3.16,26.2,6.31,39.31,9.46,.44,.11,.95,.48,1.34,.07,.47-.5,.03-1.05-.15-1.54-2.97-8.18-3.84-16.58-2.65-25.19,.09-.68,.53-1.54-.16-2.01-.67-.46-1.35,.23-1.97,.52-7.41,3.54-14.81,7.11-22.21,10.67-4.86,2.34-9.72,4.7-15.15,7.33Zm122.18,40.08c-11.45,4.76-22.68,6.08-34.42,4.45,.21,.56,.24,.8,.37,.98,6.27,8.95,12.57,17.89,18.82,26.85,.99,1.41,1.37,.77,1.83-.34,1.43-3.46,2.89-6.92,4.34-10.37,2.93-6.97,5.85-13.93,9.06-21.58Zm-59.03-93.03c-.29-.32-.37-.5-.49-.54-10.06-3.09-20.13-6.16-30.2-9.23-.44-.13-.94-.44-1.35-.08-.58,.5-.04,1.03,.14,1.51,2.99,7.99,5.98,15.98,8.99,23.96,.91,2.4,1.61,4.89,3.09,7.57,4.61-9.76,11.25-17.32,19.82-23.18Zm121.95,38.44c-.31-.32-.4-.48-.53-.53-10.18-3.69-20.37-7.37-30.55-11.07-1.33-.48-1.62-.07-1.2,1.18,.98,2.95,1.66,5.97,2.11,9.05,.76,5.23,.58,10.45-.21,16.1,10.35-5.02,20.32-9.86,30.38-14.74Zm-112.01,54.85c-9.07-4.01-16.49-9.51-22.86-17.18-1.67,10.08-3.22,19.41-4.78,28.75-.27,1.62,.6,1.31,1.51,.88,2.52-1.19,5.04-2.38,7.55-3.58,6.02-2.87,12.04-5.75,18.57-8.87Zm74.89-75.82c1.61-10.37,3.1-20.01,4.59-29.66,.25-1.64-.7-1.24-1.56-.87-3.67,1.55-7.33,3.12-11,4.69-4.29,1.84-8.59,3.69-13.32,5.72,8.82,4.99,15.73,11.4,21.29,20.12Zm2.7,48.18c-4,8.28-9.45,14.59-16.3,20.25,8.27,1.91,16.03,3.71,23.79,5.5,1.52,.35,1.14-.59,.87-1.36-2.7-7.91-5.41-15.81-8.35-24.38Z"/><path class="cls-14" d="M210.7,199.66c-.37,4.31-2.52,9-4.07,13.84-2.56,8-6.33,15.49-9.87,23.08-.64,1.38-1.32,1.87-2.95,1.29-14.29-5.05-28.6-10.06-42.95-14.95-2.04-.69-2.12-1.41-1.3-3.19,2.16-4.7,4.17-9.48,6.11-14.28,.69-1.71,1.31-2.1,3.08-1.14,7.84,4.28,15.81,8.34,23.65,12.62,1.92,1.05,2.51,.83,3.3-1.28,2.6-6.97,5.52-13.8,11.79-18.47,2.14-1.59,4.41-2.88,7.03-3.46,3.71-.82,6.34,1.33,6.18,5.92Z"/><path class="cls-14" d="M251.19,193.78c0,1.31-.46,2.84-.89,4.37-2.88,10.31-6.87,20.2-11.53,29.83-.55,1.13-1.03,1.7-2.53,1.18-7.74-2.72-15.5-5.41-23.33-7.85-2.4-.75-2.79-1.62-1.91-3.87,1.44-3.68,2.64-7.47,3.78-11.25,.4-1.32,.89-1.16,1.82-.67,3.03,1.59,6.15,3.03,9.13,4.72,1.72,.98,2.16,.46,2.78-1.23,2.05-5.52,4.17-11.05,8.6-15.25,2.4-2.28,5.04-4.17,8.32-4.95,3.39-.8,5.87,1.21,5.75,4.96Z"/><path class="cls-14" d="M192.13,194.99c-4.66,3.82-7.21,8.55-9.32,13.55-.62,1.47-1.31,1.77-2.83,.95-6.55-3.55-13.16-7-19.79-10.41-1.06-.55-1.39-.97-.84-2.16,1.03-2.24,1.9-4.55,2.75-6.86,.4-1.09,.86-1.44,2.1-1.16,9.14,2.05,18.3,4,27.93,6.09Z"/><path class="cls-12" d="M116.99,211.15c-7.8-2.72-15.59-5.43-23.79-8.29,3.39-2.38,6.84-3.72,10.18-5.25,3.29-1.51,3.31-1.45,5.44,1.47,2.85,3.91,5.7,7.81,8.56,11.72-.13,.12-.26,.24-.38,.36Z"/><path class="cls-8" d="M75.19,133.75c.87-17.87,10.51-32.76,28.81-41.16,20.99-9.63,41.25-7.15,59.15,7.61,22.88,18.87,22.55,52.62-.19,71.74-24.47,20.58-62.81,15.45-80.05-10.71-5-7.59-7.49-15.97-7.73-27.48Zm26.82,21.97c.1,.73,.17,1.6,.36,2.45,1.33,5.88,8.82,8.19,14.48,7.02,3.43-.71,6.69-2.16,9.68-4.02,3.8-2.37,7.59-2.63,11.87-1.24,4.97,1.61,10.03,3.2,15.35,.74,3.9-1.81,6.53-5.15,6.37-8.95-.18-4.49-3.69-9.33-7.59-10.4-1.86-.51-3.92-.73-4.87,1.27-1.02,2.13,.79,3.11,2.42,3.92,.07,.04,.14,.08,.2,.13,2.47,1.61,3.82,4.61,3.03,6.73-.82,2.23-3.94,3.57-6.97,2.83-2.17-.53-4.29-1.23-6.41-1.94-4.2-1.41-8.41-1.95-12.6-.09-1.82,.81-3.51,1.88-5.31,2.74-2.57,1.22-4.94,3-8.01,2.84-3.65-.19-5.49-2.73-4.47-6.21,.54-1.85,1.74-3.19,3.29-4.26,1.1-.76,1.59-1.87,1.22-3.12-.39-1.34-1.61-1.66-2.86-1.74-.89-.06-1.74,.18-2.55,.56-4.52,2.1-6.07,6.03-6.66,10.76Zm.16-17.64c6.04,.18,11.12-4.27,11.34-9.94,.22-5.68-5.02-10.69-11.38-10.86-6.07-.17-11.22,4.26-11.46,9.83-.25,5.85,4.92,10.78,11.5,10.97Zm52.65-4.2c5.71,.1,10.37-4.3,10.45-9.86,.08-5.39-4.65-9.93-10.39-9.98-5.55-.05-10.17,4.33-10.31,9.79-.14,5.48,4.42,9.95,10.26,10.06Z"/><path class="cls-13" d="M122.04,47.39c6.94,12.13,13.63,23.83,20.5,35.84-3.46-.51-6.5-1.06-9.56-1.39-7.94-.85-15.75,.02-23.43,2.11-.51,.14-1.06,.59-1.57,.15-.48-.41-.01-.87,.15-1.28,4.39-11.37,8.78-22.73,13.18-34.1,.11-.29,.3-.55,.73-1.33Z"/><path class="cls-13" d="M29.87,144.56c5.43-2.63,10.28-4.99,15.15-7.33,7.4-3.57,14.8-7.13,22.21-10.67,.62-.3,1.3-.98,1.97-.52,.68,.47,.25,1.34,.16,2.01-1.19,8.62-.32,17.01,2.65,25.19,.18,.49,.62,1.04,.15,1.54-.39,.41-.9,.04-1.34-.07-13.1-3.15-26.21-6.3-39.31-9.46-.36-.09-.7-.29-1.63-.7Z"/><path class="cls-13" d="M152.06,184.64c-3.21,7.64-6.14,14.61-9.06,21.58-1.45,3.46-2.91,6.91-4.34,10.37-.46,1.11-.84,1.75-1.83,.34-6.25-8.96-12.55-17.9-18.82-26.85-.13-.18-.16-.42-.37-.98,11.75,1.62,22.98,.31,34.42-4.45Z"/><path class="cls-13" d="M93.03,91.61c-8.57,5.86-15.2,13.42-19.82,23.18-1.48-2.67-2.19-5.17-3.09-7.57-3.01-7.98-6.01-15.97-8.99-23.96-.18-.48-.72-1-.14-1.51,.41-.36,.91-.05,1.35,.08,10.07,3.07,20.13,6.15,30.2,9.23,.13,.04,.21,.22,.49,.54Z"/><path class="cls-13" d="M214.98,130.05c-10.05,4.88-20.03,9.72-30.38,14.74,.79-5.65,.96-10.87,.21-16.1-.45-3.09-1.12-6.1-2.11-9.05-.42-1.25-.13-1.66,1.2-1.18,10.18,3.7,20.37,7.38,30.55,11.07,.13,.05,.22,.21,.53,.53Z"/><path class="cls-13" d="M102.96,184.9c-6.53,3.12-12.55,6-18.57,8.87-2.52,1.2-5.03,2.4-7.55,3.58-.91,.43-1.78,.73-1.51-.88,1.55-9.34,3.1-18.67,4.78-28.75,6.36,7.67,13.79,13.17,22.86,17.18Z"/><path class="cls-13" d="M177.85,109.08c-5.56-8.72-12.47-15.13-21.29-20.12,4.74-2.03,9.03-3.88,13.32-5.72,3.66-1.57,7.33-3.14,11-4.69,.86-.36,1.81-.76,1.56,.87-1.49,9.64-2.98,19.29-4.59,29.66Z"/><path class="cls-13" d="M180.56,157.26c2.94,8.58,5.65,16.48,8.35,24.38,.26,.78,.64,1.71-.87,1.36-7.76-1.79-15.51-3.58-23.79-5.5,6.85-5.66,12.3-11.97,16.3-20.25Z"/><path class="cls-12" d="M102,155.73c.59-4.74,2.14-8.67,6.66-10.76,.81-.37,1.65-.61,2.55-.56,1.25,.08,2.47,.41,2.86,1.74,.37,1.25-.12,2.36-1.22,3.12-1.55,1.07-2.75,2.41-3.29,4.26-1.02,3.48,.82,6.03,4.47,6.21,3.07,.16,5.44-1.62,8.01-2.84,1.8-.86,3.49-1.93,5.31-2.74,4.19-1.87,8.4-1.32,12.6,.09,2.11,.71,4.24,1.41,6.41,1.94,3.03,.74,6.14-.6,6.97-2.83,.79-2.13-.56-5.12-3.03-6.73-.07-.04-.13-.09-.2-.13-1.63-.82-3.44-1.8-2.42-3.92,.95-2,3.01-1.78,4.87-1.27,3.9,1.08,7.41,5.91,7.59,10.4,.15,3.8-2.47,7.15-6.37,8.95-5.32,2.46-10.38,.88-15.35-.74-4.28-1.39-8.07-1.12-11.87,1.24-2.99,1.86-6.25,3.31-9.68,4.02-5.66,1.17-13.15-1.14-14.48-7.02-.19-.85-.26-1.72-.36-2.45Z"/><path class="cls-14" d="M102.17,138.09c-6.57-.19-11.74-5.13-11.5-10.97,.24-5.57,5.39-10,11.46-9.83,6.36,.18,11.6,5.18,11.38,10.86-.22,5.66-5.3,10.11-11.34,9.94Z"/><path class="cls-14" d="M154.81,133.89c-5.83-.11-10.39-4.58-10.26-10.06,.14-5.46,4.76-9.84,10.31-9.79,5.75,.06,10.47,4.59,10.39,9.98-.08,5.56-4.74,9.97-10.45,9.86Z"/></g><g id="Box-Front"><g><g><g><polygon class="cls-7" points="220 277.9 20 250.14 20 216.79 220 244.55 220 277.9"/><path class="cls-1" d="M220,285.4c-.34,0-.69-.02-1.03-.07l-200-27.76c-3.71-.51-6.47-3.69-6.47-7.43v-33.35c0-2.17,.94-4.23,2.57-5.66s3.81-2.07,5.96-1.77l200,27.76c3.71,.51,6.47,3.69,6.47,7.43v33.35c0,2.17-.94,4.23-2.57,5.66-1.37,1.2-3.13,1.84-4.93,1.84ZM27.5,243.61l185,25.68v-18.21L27.5,225.4v18.21Z"/></g><g><polygon class="cls-4" points="220 277.9 420 250.14 420 216.79 220 244.55 220 277.9"/><path class="cls-1" d="M220,285.4c-1.8,0-3.55-.65-4.92-1.84-1.64-1.42-2.57-3.49-2.57-5.66v-33.35c0-3.74,2.76-6.91,6.47-7.43l200-27.76c2.15-.3,4.32,.35,5.96,1.77,1.63,1.42,2.57,3.49,2.57,5.66v33.35c0,3.74-2.76,6.91-6.47,7.43l-200,27.76c-.34,.05-.69,.07-1.03,.07Zm7.5-34.32v18.21l185-25.68v-18.21l-185,25.68Z"/></g></g><g><g><polygon class="cls-6" points="220.1 244 7.6 215.96 7.6 199.57 220.1 227.61 220.1 244"/><path class="cls-1" d="M220.1,251.5c-.33,0-.65-.02-.98-.06L6.62,223.39c-3.73-.49-6.52-3.67-6.52-7.44v-16.39c0-2.16,.93-4.22,2.56-5.64,1.62-1.42,3.79-2.08,5.93-1.8l212.5,28.04c3.73,.49,6.52,3.67,6.52,7.44v16.39c0,2.16-.93,4.22-2.56,5.64-1.38,1.21-3.14,1.86-4.94,1.86ZM15.1,209.38l197.5,26.06v-1.26L15.1,208.12v1.26Z"/></g><g><polygon class="cls-3" points="220.1 244 432.6 215.96 432.6 199.57 220.1 227.61 220.1 244"/><path class="cls-1" d="M220.1,251.5c-1.81,0-3.57-.65-4.94-1.86-1.62-1.42-2.56-3.48-2.56-5.64v-16.39c0-3.76,2.79-6.94,6.52-7.44l212.5-28.04c2.14-.28,4.3,.37,5.93,1.8s2.56,3.48,2.56,5.64v16.39c0,3.76-2.79,6.94-6.52,7.44l-212.5,28.04c-.33,.04-.66,.06-.98,.06Zm7.5-17.31v1.26l197.5-26.06v-1.26l-197.5,26.06Z"/></g></g><g><g><polygon class="cls-7" points="219.9 277.9 19.9 250.14 19.9 216.79 219.9 244.55 219.9 277.9"/><path d="M219.9,280.4c-.11,0-.23,0-.34-.02L19.56,252.62c-1.24-.17-2.16-1.23-2.16-2.48v-33.35c0-.72,.31-1.41,.86-1.89s1.27-.69,1.99-.59l200,27.76c1.24,.17,2.16,1.23,2.16,2.48v33.35c0,.72-.31,1.41-.86,1.89-.46,.4-1.04,.61-1.64,.61ZM22.4,247.96l195,27.06v-28.3L22.4,219.66v28.3Z"/></g><g><polygon class="cls-4" points="219.9 277.9 419.9 250.14 419.9 216.79 219.9 244.55 219.9 277.9"/><path d="M219.9,280.4c-.6,0-1.18-.22-1.64-.61-.55-.47-.86-1.16-.86-1.89v-33.35c0-1.25,.92-2.3,2.16-2.48l200-27.76c.71-.1,1.44,.12,1.99,.59s.86,1.16,.86,1.89v33.35c0,1.25-.92,2.3-2.16,2.48l-200,27.76c-.11,.02-.23,.02-.34,.02Zm2.5-33.67v28.3l195-27.06v-28.3l-195,27.06Z"/></g></g><g><g><polygon class="cls-6" points="220 244 7.5 215.96 7.5 199.57 220 227.61 220 244"/><path d="M220,246.5c-.11,0-.22,0-.33-.02L7.17,218.44c-1.24-.16-2.17-1.22-2.17-2.48v-16.39c0-.72,.31-1.41,.85-1.88,.54-.47,1.26-.69,1.98-.6l212.5,28.04c1.24,.16,2.17,1.22,2.17,2.48v16.39c0,.72-.31,1.41-.85,1.88-.46,.4-1.05,.62-1.65,.62ZM10,213.77l207.5,27.38v-11.35L10,202.42v11.35Z"/></g><g><polygon class="cls-3" points="220 244 432.5 215.96 432.5 199.57 220 227.61 220 244"/><path d="M220,246.5c-.6,0-1.19-.22-1.65-.62-.54-.47-.85-1.16-.85-1.88v-16.39c0-1.25,.93-2.31,2.17-2.48l212.5-28.04c.72-.09,1.43,.12,1.98,.6,.54,.47,.85,1.16,.85,1.88v16.39c0,1.25-.93,2.31-2.17,2.48l-212.5,28.04c-.11,.01-.22,.02-.33,.02Zm2.5-16.7v11.35l207.5-27.38v-11.35l-207.5,27.38Z"/></g></g></g></g><g id="Text"><path class="cls-1" d="M427.27,137.76c2.52-9.82,6.76-30.15,6.95-31.08,.57-2.73-.03-5.58-1.65-7.85-1.62-2.27-4.12-3.76-6.88-4.11l-8.2-1.04c-.43-.05-.85-.08-1.27-.08-.75,0-1.48,.08-2.19,.24-1.01-.52-2.13-.87-3.31-1.02l-10.39-1.32c-.42-.05-.84-.08-1.26-.08-1.29,0-2.55,.26-3.73,.73-3.12-1.78-6.56-2.69-9.79-3.1-1.42-.18-2.72-.27-3.99-.27-2.9,0-7.75,.57-11.84,3.76-3.53-3.63-8.36-5.98-14.29-6.73l-11.34-1.44c-.42-.05-.84-.08-1.26-.08-2.25,0-4.44,.77-6.21,2.18-3.41-2.41-7.6-4.01-12.54-4.63l-9.62-1.22c-.42-.05-.84-.08-1.26-.08-.63,0-1.25,.06-1.86,.18-.92-.43-1.92-.74-2.98-.87l-8-1.01c-.42-.05-.84-.08-1.26-.08-.51,0-1.01,.04-1.5,.11-.84-.36-1.73-.6-2.67-.72l-12.39-1.57c-.42-.05-.84-.08-1.26-.08-1.43,0-2.83,.31-4.12,.9-1.4-1.13-3.12-1.9-5.01-2.14l-13.06-1.65c-.42-.05-.84-.08-1.26-.08-2.25,0-4.46,.76-6.24,2.18-.2,.16-.39,.34-.58,.52-3.29-3.21-7.74-5.2-13.36-5.91-1.08-.14-2.15-.21-3.18-.21-9.57,0-19.8,6.23-19.8,23.71v2.77c0,6.26,1.56,12.49,5,19.6-.71,.37-1.38,.83-1.99,1.37-2.15,1.9-3.39,4.63-3.39,7.5v9.54c0,14.09,7.53,23.12,20.66,24.78,1.08,.14,2.15,.21,3.18,.21h0c2.38,0,4.64-.39,6.73-1.11,1.42,1.18,3.18,1.99,5.14,2.24l9.24,1.17c.42,.05,.84,.08,1.26,.08,.83,0,1.65-.1,2.45-.3,1.07,.59,2.26,.98,3.54,1.14l9.62,1.22c.42,.05,.84,.08,1.26,.08,.24,0,.47-.02,.71-.03,.62,.21,1.27,.36,1.94,.45l8,1.01c.42,.05,.84,.08,1.26,.08,.69,0,1.38-.07,2.05-.21,.98,.48,2.05,.81,3.17,.95l11.34,1.44c.42,.05,.84,.08,1.26,.08,.63,0,1.25-.06,1.86-.18,.92,.43,1.92,.74,2.98,.87l9.62,1.22c1.28,.16,2.55,.25,3.76,.25h0c3.76,0,6.83-.77,9.31-1.91,1.57,2.24,4.04,3.83,6.93,4.2l11.34,1.44c1.15,.15,2.28,.22,3.37,.22h0c5.09,0,8.84-1.53,11.54-3.39,4.1,4.92,9.94,6.89,15.2,7.56,1.42,.18,2.72,.27,3.98,.27h0c2.19,0,4.1-.28,5.79-.75,1.31,.91,2.82,1.51,4.43,1.71l8.77,1.11c.43,.05,.85,.08,1.27,.08,.73,0,1.45-.08,2.14-.23,1,.51,2.1,.85,3.26,1l10.29,1.3c.42,.05,.84,.08,1.26,.08,2.77,0,5.43-1.15,7.34-3.2,2.19-2.37,3.11-5.65,2.46-8.81l-6.77-32.94Z"/><path class="cls-1" d="M458.68,69.5c-1.05-1.04-2.35-2.03-4.11-3.12,2.09-2.77,3.05-6.78,1.25-11.27-.68-1.69-1.64-3.35-2.86-4.94-1.23-1.61-2.62-2.99-4.13-4.11-2.28-1.69-4.73-2.55-7.29-2.55-1.98,0-3.92,.54-5.61,1.55-.39,.23-.77,.5-1.12,.78-.97,.78-2.14,1.81-3.57,3.15,0,0,0,0,0,0-.55-.18-1.11-.34-1.67-.47,1.86-3.42,2.93-6.56,3.25-9.56,0-.09,.02-.18,.03-.27,.44-5.43-2.24-10.31-7.17-13.12-2.87-1.76-5.92-2.65-9.07-2.65-.64,0-1.29,.04-1.92,.11-5.89,.66-10.38,4.61-11.73,10.32-.31,1.31-.35,2.68-.12,4.01,.3,1.76,.27,3.36-.1,4.88-.42,1.21-.87,2.4-1.33,3.54-.35,.87-.73,1.67-1.11,2.34-.64-.46-1.24-.9-1.79-1.3-1.41-1.05-2.86-1.92-4.3-2.59-1.91-.88-3.88-1.41-5.85-1.56-.35-.02-.7-.04-1.05-.04-.79,0-1.58,.08-2.38,.21-.65-1.56-1.29-2.84-1.95-3.9-.11-.17-.22-.34-.34-.51-1.25-1.77-2.91-3.28-5.02-4.57-.04-.23-.08-.46-.13-.69-.02-.11-.05-.21-.07-.32-.61-2.53-2.04-4.95-4.35-7.4-.06-.06-.12-.13-.18-.19-2.25-2.26-4.57-3.77-7.09-4.6-1.58-.56-3.15-.85-4.7-.85-2.95,0-5.77,1.06-7.93,2.97-.12,.11-.25,.22-.36,.34-1.35,1.32-2.7,2.76-4.04,4.31-.5,0-1.02,0-1.56,0,0,0-1.31,0-1.33,0-.15,0-.31,0-.46,.01-3.07,.14-5.98,.58-8.64,1.3-.6,.16-1.18,.38-1.74,.65-.66,.32-1.28,.67-1.87,1.04-1.65,1.05-2.98,2.49-3.91,4.2-.1,.16-.17,.33-.26,.5-.51-.28-1.03-.56-1.59-.82-.12-.06-.25-.11-.37-.16-1.74-.72-3.53-1.09-5.33-1.09-.46,0-.92,.02-1.39,.07-3.66,.39-6.85,2.43-8.78,5.59-.31,.49-.62,1-.92,1.52-1.81-1.26-3.77-2.18-5.86-2.7-1.09-.27-2.18-.4-3.23-.4-2.42,0-4.73,.72-6.65,2.03-.13-.07-.26-.13-.4-.2-2.3-1.11-4.73-1.67-7.24-1.67h0c.56-1.26,1.11-2.46,1.64-3.58,1.44-3.02,2.36-4.66,2.89-5.52,2.51-4,2.28-9.04-.62-13.21-1.21-1.73-2.73-3.29-4.53-4.64-1.63-1.23-3.36-2.21-5.14-2.94-1.7-.69-3.39-1.04-5.05-1.04-2.7,0-5.28,.93-7.29,2.63-1.36,1.13-2.78,2.66-4.42,4.77-.28-.26-.56-.51-.85-.75-1.99-1.68-4.15-2.93-6.44-3.72-1.49-.51-2.99-.77-4.44-.77-2.63,0-5.07,.82-7.09,2.37-.9-1.71-2.03-3.29-3.36-4.73-2.17-2.33-6.09-5.26-12.5-6-1.03-.12-2.08-.18-3.1-.18-4.88,0-9.57,1.34-13.94,3.98-4.38,2.65-8.37,6.19-11.86,10.51-3.3,4.09-6.12,8.76-8.4,13.88-2.23,5-3.85,9.98-4.82,14.79-.89,4.45-.85,8.33,.11,11.84,.96,3.51,2.58,6.53,4.8,8.95,2.28,2.48,5.01,4.28,8.1,5.35,1.33,.46,2.66,.8,3.99,1.03-1.85,4.59-1.25,9.48,1.62,13.44,1.68,2.31,3.81,4.23,6.31,5.68,2.49,1.45,5.09,2.34,7.73,2.64,.59,.07,1.18,.1,1.75,.1,5.16,0,9.53-3,11.14-7.65,.56-1.62,1.2-3.35,1.92-5.2,1.44,1,3,1.79,4.66,2.36,1.71,.59,3.4,.94,5.04,1.06,.22,2.58,.78,4.98,1.66,7.19,1.66,4.14,4.05,7.48,7.13,9.95,3.36,2.69,7.36,4.21,11.57,4.38,.26,.01,.53,.02,.79,.02,4.06,0,7.95-1.29,11.26-3.72,2.92-2.15,4.4-5.65,4.02-9.14,1.56-.48,2.99-1.25,4.24-2.32,.01,0,.02-.02,.03-.03,.32,.27,.65,.54,.99,.79,1.88,1.4,3.99,2.42,6.26,3.03,1.32,.35,2.66,.53,3.99,.53,.77,0,1.54-.07,2.3-.19,1.26,1.15,2.68,2.15,4.24,2.96,2.14,1.11,4.34,1.75,6.51,1.92,.35,.03,.69,.04,1.02,.04,5.18,0,9.59-3.3,10.97-8.22,.02-.09,.05-.18,.07-.27,.66-2.63,1.45-5.04,2.37-7.21-.29,2.72-.34,5.3-.1,7.66,0,.1,.02,.21,.04,.31,.72,5.42,2.7,9.9,5.9,13.3,3.11,3.44,6.52,5.62,10.13,6.49,1.5,.37,2.96,.56,4.34,.56,3.07,0,5.91-.92,8.22-2.65,2.81-2.11,4.26-5.51,3.94-8.94,.47,.04,.94,.07,1.4,.07,1.32,0,2.62-.17,3.85-.5,.13-.03,.25-.07,.38-.11,.84-.26,1.67-.61,2.49-1.03,.32,.28,.65,.57,.99,.85,1.36,1.13,2.87,2.16,4.48,3.06,1.89,1.06,3.86,1.83,5.83,2.28,1.17,.27,2.35,.41,3.52,.41,1.96,0,3.87-.38,5.68-1.14,.07-.03,.14-.06,.22-.09,2.67-1.19,5.37-2.79,8.02-4.73,2.14-1.57,4.21-3.33,6.18-5.25-1.34,2.61-2,5.25-1.93,7.9,.09,3.19,1.09,6.21,2.9,8.76,1.63,2.28,3.8,4.11,6.48,5.44,2,.99,4.16,1.7,6.41,2.12,1.52,.28,3.09,.43,4.65,.43,.73,0,1.47-.03,2.2-.09,2.52-.21,4.89-.8,7.05-1.75,2.51-1.1,4.89-2.56,7.08-4.31,2.43-1.94,4.43-4.2,5.96-6.72,1.74-2.87,2.75-5.99,3-9.27,.13-1.8,0-3.6-.4-5.4,.28-.15,.55-.31,.84-.46,1.75-.96,3.46-1.81,5.06-2.54,.17-.08,.32-.14,.46-.2,.42,.05,.85,.08,1.28,.08,.7,0,1.49-.08,2.19-.23,2.42-.52,4.04-1.76,5.05-2.65,2.08-1.83,3.3-4.44,3.38-7.21,.08-2.77-.99-5.44-2.96-7.39Zm-51.09,14.26c.28-.44,.55-.88,.82-1.32,.07,.14,.13,.29,.21,.44-.36,.29-.68,.59-1.02,.89Z"/><g><path d="M428.5,101.74c-.81-1.14-2.06-1.88-3.44-2.06l-8.2-1.04c-.21-.03-.42-.04-.63-.04-1.07,0-2.09,.35-2.92,.94-.79-.95-1.93-1.6-3.21-1.76l-10.39-1.32c-.21-.03-.42-.04-.63-.04-1.39,0-2.72,.58-3.67,1.61-.04,.04-.07,.09-.11,.13-2.56-2.22-5.99-3.59-10.36-4.14-1.21-.15-2.31-.23-3.36-.23-5.93,0-10,2.38-12.19,7.09-2.58-5.66-7.58-9.22-14.57-10.11l-11.34-1.44c-.21-.03-.42-.04-.63-.04-1.21,0-2.39,.44-3.31,1.25-1.08,.95-1.69,2.32-1.69,3.75v.43c-3.08-4.38-7.93-7.11-14.38-7.92l-9.62-1.22c-.21-.03-.42-.04-.63-.04-.91,0-1.79,.25-2.57,.71-.76-.76-1.76-1.3-2.9-1.44l-8-1.01c-.21-.03-.42-.04-.63-.04-.76,0-1.51,.17-2.19,.5-.72-.62-1.62-1.03-2.61-1.15l-12.39-1.57c-.21-.03-.42-.04-.63-.04-1.21,0-2.39,.44-3.31,1.25-1.08,.95-1.69,2.32-1.69,3.75v2.57l-.41-4.35c-.22-2.33-2.03-4.2-4.35-4.49l-13.06-1.65c-.21-.03-.42-.04-.63-.04-1.13,0-2.23,.38-3.12,1.09-1.06,.84-1.73,2.08-1.86,3.42l-.6,6.17c-1.66-8.44-6.54-12.83-15.23-13.93-.87-.11-1.73-.17-2.55-.17-4.45,0-14.8,1.82-14.8,18.71v2.77c0,7.23,2.45,14.57,7.97,23.83l.02,.03-2.74-.35c-.21-.03-.42-.04-.63-.04-1.21,0-2.39,.44-3.31,1.25-1.08,.95-1.69,2.32-1.69,3.75v9.54c0,14.68,8.86,18.88,16.28,19.82,.87,.11,1.73,.17,2.56,.17h0c3.2,0,6.02-.85,8.32-2.45,.53,1.88,2.13,3.35,4.18,3.61l9.24,1.17c.21,.03,.42,.04,.63,.04,1.16,0,2.29-.4,3.19-1.15,.79,1.09,2.01,1.85,3.42,2.03l9.62,1.22c.21,.03,.42,.04,.63,.04,.47,0,.92-.09,1.37-.21,.57,.34,1.21,.58,1.91,.67l8,1.01c.21,.03,.42,.04,.63,.04,.98,0,1.95-.29,2.76-.83,.78,.87,1.87,1.46,3.09,1.61l11.34,1.44c.21,.03,.42,.04,.63,.04,.91,0,1.79-.25,2.57-.71,.76,.76,1.76,1.3,2.9,1.44l9.62,1.22c1.08,.14,2.13,.21,3.13,.21h0c6.41,0,10.15-2.8,12.15-5.15,.13-.15,.24-.32,.36-.47v3c0,2.52,1.87,4.64,4.37,4.96l11.34,1.44c.94,.12,1.86,.18,2.75,.18h0c4.56,0,8.39-1.59,11.06-4.6,.56-.63,1.04-1.32,1.49-2.05,2.18,6.35,7.02,9.87,14.82,10.86,1.21,.15,2.3,.23,3.35,.23,2.75,0,5.11-.56,7.08-1.63,.1,.18,.18,.37,.3,.53,.81,1.16,2.07,1.92,3.47,2.1l8.77,1.11c.21,.03,.42,.04,.63,.04,1.05,0,2.04-.33,2.86-.91,.79,.92,1.91,1.55,3.17,1.71l10.29,1.3c.21,.03,.42,.04,.63,.04,1.38,0,2.72-.57,3.67-1.6,1.1-1.18,1.55-2.82,1.23-4.4l-7-34.08c2.42-9.09,6.99-31,7.19-31.97,.28-1.37-.02-2.79-.83-3.92Zm-184.59,8.16l3.4,.43c.21,.03,.42,.04,.63,.04,.81,0,1.61-.21,2.32-.59l-.95,9.67c-1.33-2.73-2.97-5.48-4.81-8.56,0,0-.47-.78-.6-.99Zm157.12,27.54v-2.17l.25,1.2c-.08,.31-.17,.63-.25,.97Z"/><path class="cls-2" d="M236.42,80.25c-7.53-.95-11.72,3.47-11.72,13.59v2.77c0,6.77,2.57,13.39,7.24,21.23,5.53,9.09,6.77,10.78,6.77,15.74v2.58c0,3.05-.57,4.98-2.57,4.73-1.52-.19-2.67-1.2-2.67-4.44v-10.21l-9.15-1.16v9.54c0,9.35,4,13.86,11.91,14.86,6.58,.83,11.63-2.34,11.63-12.45v-3.15c0-7.73-2.95-12.58-7.81-20.73-4.67-7.65-6.38-11.3-6.38-17.21v-1.81c0-4.2,.76-5.53,2.76-5.28,1.91,.24,2.57,2.23,2.57,5.95v9.44l8.96,1.13v-8.58c0-12.97-4.96-15.7-11.53-16.53Zm21.44,3.29l-6.58,67.27,9.24,1.17,.76-13.35,5.62,.71,.86,13.56,9.62,1.22-6.48-68.92-13.06-1.65Zm3.91,46.66l.67-10.98c.29-4.83,.95-21.63,1.52-29.76,.48,8.26,1.43,24.98,1.81,30.18l.67,11.15-4.67-.59Zm37.36-31.51c0,11.54,1.62,33.78,2.86,47.2l-8.29-57.8-12.39-1.57v68.1l8,1.01v-19.55c0-8.2-.48-22.67-1.14-34.96l7.62,55.33,11.34,1.44V89.78l-8-1.01v9.92Zm23.73-6.91l-9.62-1.22v68.1l9.62,1.22c8.48,1.07,13.91-3.01,13.91-14.07v-36.91c0-10.21-4.48-15.92-13.91-17.12Zm4.76,53.06c0,4.39-.67,6.97-3.62,6.6l-1.62-.21v-50.93l1.62,.21c2.95,.37,3.62,2.94,3.62,7.33v37.01Zm26.59-49.09l-11.34-1.44v68.1l11.34,1.44c7.24,.92,12.2-2.65,12.2-12v-9.92c0-5.25-1.91-8.54-4.57-10.59,2.67-1.28,4.57-4.19,4.57-10.39v-9.92c0-9.63-4.67-14.33-12.2-15.28Zm3.05,55.14c0,3.24-.86,4.66-3.72,4.3l-1.52-.19v-20.98l1.14,.14c3.05,.39,4.1,1.85,4.1,5.1v11.64Zm0-28.62c0,3.82-.86,4.85-4.1,4.44l-1.14-.14v-22.51l1.52,.19c2.76,.35,3.72,1.9,3.72,5.05v12.97Zm27.06-23.28c-8-1.01-11.82,1.94-11.82,12.33v41.59c0,10.4,3.81,14.31,11.82,15.33,8,1.01,11.72-1.95,11.72-12.35v-41.59c0-10.4-3.81-14.31-11.72-15.32Zm2.57,56.6c0,3.43-.86,4.28-2.57,4.06-1.81-.23-2.67-1.29-2.67-4.73v-43.3c0-3.43,.86-4.28,2.67-4.05,1.72,.22,2.57,1.28,2.57,4.71v43.3Zm37.55-50.95l-8.2-1.04s-1.81,12.46-2.95,22.9l-3.81-23.76-10.39-1.32,7.34,35.17c-2.48,9.22-7.91,32.86-7.91,32.86l8.77,1.11s1.91-11.97,3.05-22.89l3.62,23.73,10.29,1.3-7.24-35.26c2.29-8.1,7.43-32.82,7.43-32.82Z"/></g><g><g><path d="M455.16,73.05c-.8-.79-1.87-1.59-3.37-2.51-1.9-1.17-3.78-1.77-5.59-1.77-.07,0-.23,0-.3,0-.46,.02-.93,.06-1.41,.13,.57-.65,1.17-1.27,1.78-1.87,1.42-1.39,2.25-1.95,2.61-2.16,.03-.02,.06-.03,.09-.05,1.99-1.2,3.77-3.97,2.21-7.86-.52-1.28-1.25-2.55-2.19-3.78-.95-1.24-2-2.29-3.14-3.13-1.4-1.04-2.85-1.56-4.32-1.56-1.07,0-2.13,.29-3.04,.84-.2,.12-.39,.25-.57,.39-.87,.7-1.95,1.65-3.29,2.9-.69,.64-1.4,1.41-2.15,2.32-.39-.2-.79-.4-1.21-.58-1.36-.61-2.76-1.03-4.17-1.24-.51-.08-1.01-.11-1.51-.11-1.44,0-2.79,.32-4.01,.96-.05,.03-.1,.06-.16,.08-.58,.33-1.14,.69-1.68,1.07,.25-.35,.49-.7,.75-1.08,.02-.04,.05-.07,.07-.11,.79-1.22,1.56-2.48,2.3-3.74,.72-1.24,1.42-2.49,2.08-3.72,1.66-2.99,2.6-5.63,2.87-8.07,0-.05,0-.09,.01-.14,.28-3.51-1.44-6.57-4.73-8.41-2.1-1.3-4.29-1.96-6.53-1.96-.46,0-.93,.03-1.31,.08-3.82,.41-6.61,2.84-7.48,6.51-.16,.66-.18,1.34-.06,2,.44,2.54,.36,4.89-.24,7.17-.47,1.35-.97,2.68-1.48,3.95-.48,1.19-1.01,2.29-1.56,3.23-1.27,2.13-1.2,4.7,.19,7.04,.07,.12,.15,.23,.23,.35,1.02,1.43,2.48,2.52,4.22,3.15,.76,.3,1.55,.44,2.35,.45h0c.68,0,1.55-.12,2.47-.5-.36,.58-.69,1.17-.99,1.78-.93,1.92-1.55,3.99-1.84,6.18-.3,2.24-.19,4.53,.33,6.84,.59,2.53,1.68,4.91,3.24,7.07,.21,.29,.42,.58,.63,.88-1.11,.8-2.21,1.64-3.29,2.49-2.73,2.16-5.01,4.62-6.78,7.33-1.5,2.33-2.23,4.64-2.18,6.88,.06,2.22,.72,4.23,1.98,5.99,1.15,1.61,2.7,2.9,4.62,3.85,1.59,.78,3.31,1.35,5.11,1.69,1.22,.23,2.48,.34,3.74,.34,.59,0,1.19-.02,1.79-.08,1.97-.17,3.8-.62,5.45-1.34,2.11-.93,4.12-2.15,5.97-3.64,1.97-1.58,3.59-3.4,4.82-5.41,1.33-2.19,2.1-4.56,2.29-7.05,.18-2.41-.31-4.86-1.46-7.3,1.38-.84,2.89-1.7,4.49-2.58,1.86-1.01,3.67-1.92,5.39-2.7,1.04-.47,1.72-.71,2.11-.83,.55,.17,1.12,.26,1.69,.26,.34,0,.78-.05,1.12-.12,1.28-.27,2.17-.95,2.81-1.52,1.04-.92,1.65-2.22,1.68-3.61s-.5-2.72-1.48-3.69Z"/><path d="M407.07,73.66c.8-1.67,.83-3.56,.08-5.28-.52-1.2-1.32-2.22-2.36-3.04-.84-.66-1.75-1.14-2.74-1.44,.29-1.16,.44-2.09,.46-2.9,.12-1.9-.32-5.29-4.12-8.11-.03-.02-.07-.05-.1-.07-1.04-.73-1.97-1.4-2.79-2.02-1.13-.84-2.28-1.54-3.42-2.06-1.37-.63-2.75-1-4.11-1.11-.23-.02-.46-.03-.69-.03-1.28,0-2.61,.26-3.94,.77-.09,.03-.17,.07-.26,.11-.58,.26-1.16,.58-1.74,.93,0-.13,0-.25-.03-.38-.09-.61-.21-1.26-.38-1.95l-.38-1.55c-.06-.26-.14-.51-.25-.76-.56-1.33-1.08-2.39-1.6-3.24-.05-.09-.11-.17-.17-.25-1.15-1.63-2.87-2.97-5.27-4.11-.07-.03-.14-.07-.22-.1-.12-.05-.24-.1-.37-.15,.13-.82,.11-1.74-.1-2.76-.01-.05-.02-.1-.04-.16-.41-1.68-1.4-3.32-3.13-5.15-.03-.03-.06-.06-.09-.09-1.7-1.71-3.39-2.82-5.17-3.39-1.05-.38-2.09-.58-3.07-.58-1.75,0-3.35,.59-4.62,1.72-.06,.05-.12,.11-.18,.17-1.72,1.68-3.46,3.59-5.17,5.7-.65,.01-1.34,.02-2.06,.03-.59,0-1.21,0-1.85,0h-1.32s-.18,0-.26,0c-2.71,.12-5.25,.51-7.56,1.13-.3,.08-.59,.19-.87,.33-.49,.24-.94,.49-1.36,.75-.95,.61-1.73,1.45-2.26,2.46-1.07,1.76-1.27,3.91-.55,5.98,.02,.06,.04,.12,.07,.18,.12,.46,.27,.94,.46,1.46,.24,.62,.54,1.23,.89,1.8,.03,.04,.04,.08,.06,.12,.1,.25,.21,.5,.35,.73,.43,.73,.93,1.4,1.5,1.98-.19-.1-.37-.22-.57-.32-.84-.4-2.12-1.03-3.81-1.89-.06-.03-.12-.07-.18-.1,0-1.56-.51-3.1-1.54-4.46-1.12-1.48-2.74-2.7-4.98-3.74-.06-.03-.12-.06-.19-.08-1.13-.47-2.27-.71-3.41-.71-.28,0-.57,.01-.86,.05-2.1,.23-3.94,1.41-5.06,3.25-1.34,2.14-2.71,4.56-4.09,7.18-.05-.09-.09-.18-.14-.27-.86-1.36-1.99-2.58-3.35-3.62-1.43-1.09-2.99-1.84-4.65-2.25-.7-.17-1.39-.26-2.04-.26-1.92,0-3.64,.73-4.89,2.06-.41,.4-.8,.8-1.19,1.21-1.03-.77-2.08-1.42-3.14-1.94-1.61-.78-3.32-1.17-5.07-1.17-.02,0-.09,0-.11,0-2.01,.02-4.06,.72-6.08,2.09-.05,.04-.1,.07-.15,.11-1.01,.74-2.02,1.6-3.03,2.58,.8-2.15,1.61-4.22,2.41-6.19,1.42-3.47,2.79-6.6,4.08-9.32,1.25-2.62,2.31-4.65,3.12-5.96,1.5-2.32,1.33-5.22-.44-7.76-.91-1.3-2.06-2.47-3.43-3.5-1.29-.97-2.65-1.74-4.02-2.3-1.11-.45-2.15-.67-3.17-.67-1.54,0-2.95,.51-4.08,1.47-1.29,1.07-2.72,2.68-4.5,5.08-.95,1.28-1.96,2.68-3.01,4.18-.17-.39-.38-.79-.64-1.2-.91-1.47-2.11-2.84-3.55-4.06-1.51-1.28-3.14-2.22-4.84-2.81-.97-.33-1.91-.5-2.81-.5-1.96,0-3.73,.79-5.02,2.24-1.1,1.27-2.48,3.15-4.24,5.77-.02,.03-.04,.06-.06,.08-.11-1.38-.3-2.7-.58-3.96-.7-3.12-2.12-5.84-4.22-8.09-2.32-2.49-5.49-3.98-9.42-4.44-.84-.1-1.69-.15-2.52-.15-3.95,0-7.77,1.1-11.36,3.26-3.88,2.35-7.43,5.5-10.55,9.37-3.02,3.76-5.62,8.06-7.72,12.78-2.08,4.67-3.59,9.29-4.48,13.74-.73,3.67-.72,6.79,.03,9.54,.75,2.74,1.98,5.06,3.66,6.89,1.71,1.86,3.74,3.21,6.05,4,2.04,.7,4.07,1.07,6.13,1.07,1.36,0,2.66-.17,3.89-.52-.89,2.14-1.88,4.45-2.95,6.89-.02,.04-.03,.08-.05,.12-1.23,3.01-.87,6.1,1.01,8.7,1.27,1.75,2.88,3.19,4.78,4.29,1.89,1.1,3.84,1.77,5.79,2,.4,.05,.8,.07,1.17,.07,3.64,0,5.7-2.21,6.42-4.28,.98-2.82,2.19-5.98,3.61-9.4,.56-1.35,1.15-2.73,1.76-4.13,.42,1.94,1.42,3.62,2.93,4.92,1.37,1.19,2.94,2.09,4.64,2.68,1.58,.54,3.1,.82,4.54,.82h.25c1.59-.04,2.79-.43,3.69-.97-.46,4.27-.05,8.06,1.23,11.25,1.33,3.33,3.22,5.99,5.61,7.91,2.56,2.05,5.46,3.15,8.64,3.28,.2,0,.39,.01,.59,.01,3.02,0,5.81-.92,8.29-2.75,1.77-1.31,2.48-3.62,1.75-5.7-.71-2-2.6-3.33-4.71-3.33-.08,0-.44,.01-.44,.01-.46,0-.63-.08-.63-.11-.36-.53-.82-1.55-1.02-3.42,.38,.27,.77,.52,1.18,.75,1.59,.94,3.25,1.6,4.92,1.98,.76,.17,1.5,.26,2.2,.26,2.29,0,3.84-.9,4.76-1.69,1.24-1.03,2.44-2.17,3.59-3.38,.11,.18,.24,.37,.36,.55,.91,1.3,2.02,2.45,3.3,3.41,1.37,1.02,2.9,1.76,4.56,2.2,.9,.24,1.81,.36,2.7,.36,1.11,0,2.21-.19,3.24-.55,.24-.08,.47-.18,.71-.27,.3,.46,.66,.92,1.12,1.39,1.07,1.1,2.34,2.03,3.76,2.77,1.55,.8,3.1,1.26,4.61,1.38,.22,.02,.42,.02,.62,.02,2.96,0,5.38-1.79,6.16-4.57,.01-.04,.02-.09,.04-.13,1.27-5.05,3-9.43,5.15-13,.44-.73,.9-1.45,1.38-2.16,.64,.77,1.47,1.45,2.49,2.06,1.28,.77,2.68,1.41,4.14,1.91-.17,.77-.34,1.54-.47,2.28-.69,3.71-.88,7.1-.58,10.08,0,.05,.01,.1,.02,.16,.58,4.38,2.13,7.94,4.62,10.56,2.47,2.75,4.97,4.39,7.64,5.02,1.11,.28,2.17,.42,3.16,.42,1.98,0,3.78-.57,5.22-1.65,1.56-1.17,2.28-3.16,1.86-5.07-.41-1.89-1.89-3.37-3.77-3.81-.1-.16-.37-.68-.52-1.91-.17-1.27-.18-2.77-.06-4.46,.97,1.25,2.15,2.32,3.53,3.16,1.41,.87,2.94,1.5,4.53,1.87,.95,.22,1.87,.33,2.76,.33s1.74-.11,2.54-.33c.06-.02,.13-.04,.19-.06,1.56-.49,3.12-1.39,4.73-2.74,.21,.28,.42,.56,.65,.83,.02,.03,.05,.06,.07,.08,.74,.83,1.63,1.67,2.72,2.58,1.12,.93,2.37,1.79,3.71,2.53,1.48,.83,3.01,1.43,4.53,1.78,.79,.19,1.59,.28,2.37,.28,1.29,0,2.56-.25,3.75-.76,.04-.01,.07-.03,.1-.05,2.35-1.05,4.74-2.46,7.11-4.2,2.3-1.69,4.53-3.62,6.62-5.75,2.12-2.16,4.04-4.54,5.71-7.09,1.64-2.5,2.95-5.1,3.89-7.73ZM225.7,24.1c-.35,2.56-.97,5.55-1.84,8.86-.89,3.39-1.94,6.89-3.14,10.39-1.15,3.39-2.36,6.78-3.6,10.08-.81-.51-1.74-.78-2.68-.78-.78,0-1.56,.18-2.29,.55-.21,.11-.34,.15-.41,.17-.04-.02-.06-.04-.06-.04,0,0-.05-.08-.11-.27-.35-1.52-.36-3.4-.05-5.57,.36-2.51,1.02-5.12,1.96-7.76,.95-2.69,2.15-5.35,3.57-7.9,1.42-2.56,2.92-4.86,4.47-6.83,1.41-1.79,2.82-3.19,4.19-4.17,.07-.05,.13-.09,.2-.14,.02,.84-.03,1.94-.22,3.39Zm113.85,28.05c-.29-.43-.62-.83-1.01-1.21,.44,.19,.91,.33,1.39,.39-.13,.27-.25,.54-.38,.82Zm31.27,7.16c.09-.1,.18-.2,.26-.3,.16-.19,.3-.4,.43-.62,.3-.51,.66-1.09,1.09-1.78,.19-.3,.38-.62,.57-.92,.28,.15,.57,.26,.87,.35-.83,1.01-1.64,2.07-2.42,3.21-.17,.25-.33,.51-.5,.76-.09-.24-.18-.47-.3-.7Z"/></g><path class="cls-1" d="M266.35,90.25c-1.11-1.62-1.76-3.83-1.95-6.62-.19-2.79,.01-6.01,.62-9.66,.6-3.65,1.44-7.46,2.53-11.44,1.08-3.98,2.33-7.99,3.76-12.06,1.43-4.06,2.87-7.88,4.34-11.47,1.46-3.58,2.86-6.77,4.19-9.58,1.33-2.8,2.48-4.97,3.43-6.52,.38-.59,.27-1.32-.33-2.18-.6-.86-1.38-1.65-2.33-2.37-.95-.71-1.92-1.27-2.91-1.67-.99-.4-1.7-.4-2.14-.01-.95,.78-2.19,2.19-3.72,4.24-1.52,2.05-3.18,4.39-4.96,7.01-1.78,2.62-3.59,5.42-5.43,8.38-1.84,2.97-3.54,5.77-5.1,8.42-1.56,2.65-2.91,4.96-4.05,6.92-1.14,1.97-1.91,3.31-2.29,4.03,.25-.92,.63-2.52,1.14-4.78,.51-2.26,1.19-4.82,2.05-7.68,.86-2.86,1.87-5.82,3.05-8.9,1.17-3.07,2.53-5.86,4.05-8.35,.38-.59,.25-1.4-.38-2.43-.64-1.03-1.48-1.98-2.53-2.87-1.05-.88-2.13-1.52-3.24-1.9-1.11-.38-1.92-.29-2.43,.29-.95,1.1-2.24,2.86-3.86,5.27-1.62,2.42-3.32,5.07-5.1,7.94-1.78,2.88-3.51,5.74-5.19,8.6-1.68,2.86-3.03,5.24-4.05,7.16,.57-1.59,1.24-3.58,2-5.97,.76-2.39,1.43-4.94,2-7.64,.57-2.7,.95-5.42,1.14-8.17,.19-2.74,.03-5.24-.48-7.5-.51-2.25-1.51-4.18-3-5.79-1.49-1.6-3.61-2.56-6.34-2.88-3.75-.44-7.32,.38-10.72,2.43-3.4,2.05-6.48,4.8-9.24,8.23-2.76,3.43-5.11,7.32-7.05,11.68-1.94,4.35-3.32,8.58-4.15,12.68-.57,2.86-.59,5.27-.05,7.24,.54,1.97,1.38,3.58,2.53,4.82,1.14,1.25,2.48,2.13,4,2.66,1.52,.53,3,.79,4.43,.8,1.43,0,2.7-.26,3.81-.8,1.11-.54,1.79-1.27,2.05-2.19-1.72,.88-3.32,.97-4.81,.25-1.49-.71-2.46-1.92-2.91-3.63-.51-2.16-.56-4.66-.14-7.5,.41-2.84,1.14-5.75,2.19-8.71,1.05-2.96,2.35-5.85,3.91-8.66,1.56-2.81,3.19-5.3,4.91-7.49,1.72-2.19,3.46-3.91,5.24-5.16,1.78-1.26,3.43-1.83,4.96-1.71,1.46,.17,2.4,1.14,2.81,2.9,.41,1.76,.43,4.04,.05,6.83-.38,2.79-1.03,5.94-1.95,9.45-.92,3.52-2,7.1-3.24,10.74-1.24,3.64-2.51,7.2-3.81,10.67-1.3,3.47-2.51,6.58-3.62,9.31-1.11,2.73-2.4,5.76-3.86,9.09-.57,1.4-.43,2.68,.43,3.87,.86,1.18,1.94,2.15,3.24,2.9,1.3,.76,2.59,1.21,3.86,1.35,1.27,.15,2.03-.15,2.29-.88,1.02-2.93,2.25-6.16,3.72-9.68,1.46-3.52,3.08-7.18,4.86-10.98,1.78-3.8,3.72-7.6,5.81-11.39,2.1-3.79,4.32-7.43,6.67-10.91-.25,.73-.57,1.86-.95,3.37-.38,1.51-.81,3.21-1.29,5.1-.48,1.89-.97,3.86-1.48,5.93-.51,2.07-.95,4.07-1.33,6-.38,1.93-.68,3.66-.91,5.19-.22,1.53-.3,2.72-.24,3.55,.06,1.28,.54,2.3,1.43,3.08,.89,.77,1.89,1.35,3,1.73,1.11,.38,2.13,.57,3.05,.54,.92-.02,1.44-.25,1.57-.68,.19-.93,.67-2.24,1.43-3.94,.76-1.69,1.67-3.56,2.72-5.6,1.05-2.04,2.19-4.15,3.43-6.33,1.24-2.18,2.4-4.2,3.48-6.08,1.08-1.88,2.05-3.53,2.91-4.96,.86-1.43,1.44-2.38,1.76-2.85-.51,1.21-1.16,3.09-1.95,5.64-.8,2.55-1.61,5.44-2.43,8.68-.83,3.24-1.62,6.63-2.38,10.17-.76,3.54-1.33,6.9-1.72,10.1-.45,3.64-.16,6.72,.86,9.26,1.02,2.53,2.38,4.49,4.1,5.86,1.72,1.38,3.62,2.1,5.72,2.19,2.1,.08,4-.51,5.72-1.77-2.35,.11-4.08-.65-5.19-2.27Zm82.57-25.37c2.22-5.34,4.89-10.5,8-15.48,.51-.7,1.02-1.41,1.52-2.11,.51-.7,1.02-1.41,1.52-2.11,.9,.05,1.98,.22,3.23,.49-.32,.66-.63,1.39-.94,2.21-.32,.82-.62,1.71-.91,2.66-.29,.95-.49,1.87-.62,2.74-.06,.5,.17,1.01,.71,1.51,.54,.51,1.17,.92,1.91,1.22,.73,.31,1.46,.47,2.19,.49,.73,.02,1.29-.2,1.67-.66,.32-.54,.7-1.16,1.14-1.87,.44-.71,.89-1.44,1.33-2.18,.44-.74,.87-1.46,1.29-2.14,.31-.51,.56-.93,.74-1.26,1.8,.88,3.07,1.84,3.79,2.88,.57-.06,.86-.57,.86-1.52-.06-.45-.16-.94-.29-1.46-.13-.52-.25-1.05-.38-1.57-.45-1.07-.86-1.91-1.24-2.53-.64-.9-1.75-1.73-3.34-2.49-1.46-.61-3.53-1.33-6.19-2.15,.25-.29,.57-.65,.95-1.08,.38-.43,.82-.94,1.33-1.51,.51-.26,.67-.84,.48-1.76-.19-.79-.83-1.75-1.91-2.89-1.14-1.15-2.22-1.88-3.24-2.19-1.21-.46-2.13-.41-2.76,.16-2.1,2.05-4.19,4.44-6.29,7.19-.32,.03-.6,.03-.86,0-.25-.03-.48-.06-.67-.08-.89,.02-1.84,.04-2.86,.05-1.02,.01-2.1,.01-3.24,0-2.35,.11-4.51,.43-6.48,.96-.32,.15-.6,.31-.86,.47-.25,.16-.44,.39-.57,.7-.38,.53-.44,1.16-.19,1.89,.06,.14,.13,.33,.19,.59,.06,.26,.16,.56,.29,.89,.13,.33,.29,.65,.48,.96,.19,.31,.35,.63,.48,.96,.32,.55,.7,1,1.14,1.37,.32,.29,.67,.14,1.05-.45,.13-.11,.35-.26,.67-.45,.32-.19,.73-.31,1.24-.38,.51-.13,1.02-.23,1.52-.3,.51-.07,1.05-.13,1.62-.19,.57-.06,1.1-.09,1.57-.1,.48,0,.87,0,1.19,.04-.13,.3-.29,.59-.48,.85-.19,.26-.35,.55-.48,.85-2.03,3.71-3.92,7.49-5.67,11.36-1.75,3.87-3.32,7.85-4.72,11.95-.34,1-.65,1.97-.95,2.91,0-.18-.04-.34-.15-.42-.16-.11-.35-.23-.57-.35-.22-.12-.45-.3-.67-.55-.22-.25-.37-.66-.43-1.24-.25-2.64-.19-5.36,.19-8.18,.19-1.95,.35-3.39,.48-4.33,.13-.94,.03-1.68-.29-2.23-.32-.55-.92-1.03-1.81-1.45-.89-.42-2.22-1.08-4-1.99-.89-.48-1.52-.7-1.91-.65-.38,.05-.86,.49-1.43,1.31-.13,.18-.46,.68-1,1.51-.54,.83-1.16,1.68-1.86,2.55-.76,1.06-1.62,2.2-2.57,3.42,1.02-2.36,2-4.46,2.95-6.29,.95-1.83,1.84-3.59,2.67-5.27,.44-.9,.36-1.75-.24-2.56-.6-.8-1.64-1.54-3.1-2.22-.64-.26-1.24-.37-1.81-.31-.57,.06-1.02,.36-1.33,.89-1.52,2.43-3.08,5.21-4.67,8.33-1.59,3.12-3.08,6.43-4.48,9.92-.23,.58-.45,1.17-.67,1.75-1.91,2.8-3.63,5.1-5.14,6.87-2.61,3.07-4.54,4.56-5.81,4.48-.45-.05-.68-.59-.71-1.61-.03-1.02,.25-2.48,.86-4.38,.6-1.9,1.56-4.21,2.86-6.92,1.3-2.71,3.03-5.78,5.19-9.22,.44-.65,.4-1.4-.14-2.26-.54-.86-1.26-1.62-2.14-2.3-.89-.68-1.83-1.13-2.81-1.38-.99-.24-1.7-.1-2.14,.42-.76,.74-1.48,1.5-2.14,2.28-.67,.78-1.35,1.51-2.05,2.19-1.08-.76-2.1-1.53-3.05-2.31-.95-.78-1.91-1.4-2.86-1.86-.95-.46-1.94-.69-2.95-.68-1.02,.01-2.13,.42-3.34,1.23-1.65,1.21-3.32,2.83-5,4.86-1.68,2.03-3.21,4.25-4.57,6.67-1.37,2.42-2.53,4.94-3.48,7.56-.95,2.62-1.52,5.13-1.72,7.53-.13,.94,.24,1.89,1.1,2.85,.86,.96,1.86,1.77,3,2.45,1.14,.67,2.3,1.14,3.48,1.41,1.17,.26,2.05,.14,2.62-.36,1.21-1,2.37-2.11,3.48-3.32,1.11-1.21,2.18-2.42,3.19-3.64,1.02-1.22,1.95-2.36,2.81-3.44,.86-1.08,1.67-2.02,2.43-2.82-.45,1.41-.86,2.99-1.24,4.72-.38,1.74-.51,3.12-.38,4.15,.06,.77,.4,1.59,1,2.45,.6,.87,1.33,1.62,2.19,2.26,.86,.64,1.81,1.1,2.86,1.38,1.05,.28,2.05,.25,3-.08,1.78-.62,3.59-1.83,5.43-3.61,.67-.65,1.33-1.34,1.99-2.06-.48,2.01-.9,3.99-1.22,5.91-.13,.69,.16,1.39,.86,2.1,.7,.72,1.52,1.32,2.48,1.81,.95,.49,1.86,.77,2.72,.84,.86,.07,1.38-.24,1.57-.91,1.4-5.56,3.3-10.35,5.72-14.36,2.41-4.01,5.3-7.67,8.67-10.96,.06,1.28,.06,2.53,0,3.77-.06,1.23,.06,2.41,.38,3.53,.13,.65,.68,1.27,1.67,1.86,.98,.59,2.05,1.08,3.19,1.47,1.14,.39,2.21,.61,3.19,.66,.81,.04,1.31-.11,1.54-.43-.84,2.77-1.49,5.34-1.92,7.69-.6,3.27-.78,6.16-.52,8.67,.45,3.36,1.56,5.97,3.34,7.83,1.78,1.99,3.49,3.17,5.15,3.55,1.84,.47,3.24,.34,4.19-.37-2.48-.54-3.94-2.59-4.38-6.14-.45-3.36-.1-7.67,1.05-12.95,1.27-5.26,3.02-10.65,5.24-16.18Zm-57.37-6.75c-.76,1.06-1.75,2.31-2.95,3.76-1.21,1.45-2.45,2.9-3.72,4.34-1.27,1.44-2.49,2.75-3.67,3.91-1.18,1.17-2.11,2-2.81,2.49,0-.76,.29-1.89,.86-3.38,.57-1.49,1.32-3.1,2.24-4.84,.92-1.74,2-3.49,3.24-5.25,1.24-1.76,2.59-3.26,4.05-4.49,.7-.68,1.27-.93,1.72-.75,.44,.18,.78,.55,1,1.12,.22,.57,.33,1.17,.33,1.8s-.1,1.07-.29,1.3Zm110.16,11.17c-.38-.3-.78-.5-1.19-.62-.41-.11-.75-.05-1,.17-1.21,2.34-2.8,4.7-4.76,7.08-1.97,2.38-3.97,4.48-6,6.31-2.03,1.83-3.99,3.27-5.86,4.33-1.87,1.06-3.32,1.43-4.34,1.12-.7-.21-1.08-.81-1.14-1.8-.06-.99,0-2.11,.19-3.36,.19-1.25,.48-2.47,.86-3.67,.38-1.2,.73-2.09,1.05-2.69,1.14,.64,2.19,1.08,3.14,1.32,.95,.24,2.06,.27,3.34,.1,1.78-.37,3.38-1.31,4.81-2.83,1.43-1.52,2.64-3.19,3.62-5.02,.98-1.82,1.75-3.6,2.29-5.31,.54-1.72,.81-2.93,.81-3.63,.13-1.45-.57-2.74-2.1-3.87-1.08-.76-2.05-1.46-2.91-2.1-.86-.64-1.7-1.15-2.53-1.53-.83-.38-1.62-.6-2.38-.66-.76-.06-1.59,.09-2.48,.43-1.46,.66-3.02,1.78-4.67,3.37-1.65,1.59-3.23,3.47-4.72,5.65-1.39,2.02-2.64,4.2-3.78,6.53-1.27,2.04-2.5,3.89-3.7,5.58-1.59,2.23-3,4.04-4.24,5.42-1.24,1.38-2.27,2.3-3.1,2.74-.83,.45-1.37,.3-1.62-.43-.38-1-.03-3.04,1.05-6.13,1.08-3.08,3.11-7.32,6.1-12.69,.32-.66,.16-1.35-.48-2.06-.64-.71-1.43-1.31-2.38-1.8-.95-.49-1.92-.8-2.91-.91-.99-.11-1.64,.06-1.95,.54-1.02,1.54-2,3.41-2.95,5.62-.95,2.21-1.83,4.46-2.62,6.75-.79,2.29-1.43,4.48-1.91,6.55-.48,2.08-.75,3.75-.81,5.01-.06,1.01,.22,1.95,.86,2.82,.64,.87,1.43,1.6,2.38,2.18,.95,.59,1.97,1.01,3.05,1.26,1.08,.25,2.03,.27,2.86,.05,1.33-.42,2.84-1.48,4.53-3.19,1.42-1.45,2.81-3.07,4.16-4.84-.05,.79-.06,1.56-.02,2.32,.13,2.15,.8,3.92,2,5.34,.57,.64,1.3,1.33,2.19,2.07,.89,.74,1.87,1.41,2.95,2.01,1.08,.6,2.16,1.03,3.24,1.28,1.08,.25,2.1,.18,3.05-.22,2.03-.91,4.1-2.13,6.19-3.67,2.1-1.54,4.1-3.28,6-5.22,1.91-1.94,3.6-4.05,5.1-6.32,1.49-2.27,2.65-4.6,3.48-6.99,.25-.41,.29-.84,.1-1.28-.19-.43-.48-.8-.86-1.1Zm-19.39,.9c.67-1.13,1.46-2.34,2.38-3.63,.92-1.29,1.87-2.5,2.86-3.63,.98-1.13,1.79-1.87,2.43-2.25-.13,1.07-.43,2.33-.91,3.81-.48,1.47-1.11,2.84-1.91,4.12-.8,1.28-1.68,2.3-2.67,3.08-.99,.78-2.05,1-3.19,.68,0-.32,.33-1.04,1-2.17Zm28.54-13.47c.63,.26,1.24,.11,1.81-.46,.44-.52,.98-1.2,1.62-2.05,.63-.85,1.33-1.83,2.1-2.95,.76-1.18,1.49-2.37,2.19-3.56,.7-1.19,1.37-2.38,2-3.58,1.33-2.39,2.1-4.46,2.29-6.22,.13-1.57-.64-2.81-2.29-3.7-1.59-1.01-3.18-1.42-4.76-1.22-1.72,.18-2.76,1.08-3.14,2.69,.57,3.31,.44,6.47-.38,9.49-.51,1.47-1.05,2.92-1.62,4.34-.57,1.43-1.21,2.74-1.91,3.93-.32,.54-.25,1.18,.19,1.93,.44,.62,1.08,1.08,1.91,1.37Zm38.31,18.09c-1.14-.71-2.16-1.05-3.05-1.02-1.21,.05-2.62,.4-4.24,1.03-1.62,.64-3.26,1.42-4.91,2.34-1.65,.92-3.29,1.86-4.91,2.82-1.62,.96-3.03,1.75-4.24,2.37-1.21-1.54-1.87-3.35-2-5.43-.13-2.08,.06-4.05,.57-5.9,.51-1.85,1.29-3.39,2.33-4.64,1.05-1.24,2.18-1.77,3.38-1.56-.13,.3-.32,.73-.57,1.27-.25,.54-.48,1.12-.67,1.73-.19,.61-.35,1.25-.48,1.9-.13,.65-.13,1.24,0,1.76,.19,.72,.51,1.41,.95,2.07,.44,.66,.94,1.21,1.48,1.65,.54,.44,1.08,.79,1.62,1.05,.54,.25,.97,.34,1.29,.24-.45-1.07-.33-2.38,.33-3.92,.67-1.54,1.6-3.1,2.81-4.68,1.21-1.58,2.51-3.05,3.91-4.41,1.4-1.36,2.6-2.34,3.62-2.92,.44-.27,.49-.83,.14-1.7-.35-.87-.86-1.74-1.52-2.61-.67-.87-1.38-1.59-2.14-2.16-.76-.57-1.37-.71-1.81-.45-.76,.61-1.76,1.5-3,2.66-1.24,1.16-2.68,2.98-4.34,5.46-.45-.37-1.06-.82-1.86-1.36-.8-.54-1.67-1.02-2.62-1.45-.95-.43-1.91-.71-2.86-.86-.95-.14-1.78-.03-2.48,.33-1.4,.79-2.65,1.78-3.76,2.95-1.11,1.18-2.02,2.48-2.72,3.93-.7,1.44-1.16,3-1.38,4.66-.22,1.66-.14,3.34,.24,5.04,.44,1.9,1.25,3.66,2.43,5.29,1.17,1.63,2.33,3.34,3.48,5.13-2.42,1.56-4.78,3.26-7.1,5.09-2.32,1.83-4.21,3.87-5.67,6.11-.95,1.48-1.41,2.83-1.38,4.04,.03,1.21,.38,2.29,1.05,3.22,.67,.94,1.59,1.69,2.76,2.28,1.18,.58,2.45,1,3.81,1.25,1.37,.25,2.76,.32,4.19,.2,1.43-.12,2.72-.43,3.86-.94,1.72-.75,3.34-1.74,4.86-2.97,1.52-1.22,2.75-2.59,3.67-4.1,.92-1.51,1.44-3.12,1.57-4.83,.13-1.7-.29-3.47-1.24-5.29-.32-.55-.64-1.06-.95-1.54-.32-.48-.64-.99-.95-1.54,.51-.51,1.6-1.29,3.29-2.34,1.68-1.04,3.51-2.1,5.48-3.18,1.97-1.07,3.87-2.03,5.72-2.87,1.84-.84,3.24-1.29,4.19-1.37,.38-.02,.68,.02,.91,.11,.22,.09,.4,.16,.52,.2,.13,.05,.24,.06,.33,.04,.1-.02,.27-.14,.52-.37-.51-.5-1.33-1.11-2.48-1.81Zm-24.73,18.97c-.6,1.27-1.43,2.47-2.48,3.62-1.05,1.15-2.19,2.12-3.43,2.89-1.24,.78-2.3,1.15-3.19,1.11,.82-2.26,2.11-4.22,3.86-5.89,1.75-1.67,3.6-3.32,5.57-4.93,.38,.87,.27,1.94-.33,3.2Z"/></g></g></g></svg>